<?xml version="1.0" standalone="no"?>
<!DOCTYPE svg PUBLIC "-//W3C//DTD SVG 20010904//EN"
 "http://www.w3.org/TR/2001/REC-SVG-20010904/DTD/svg10.dtd">
<svg version="1.0" xmlns="http://www.w3.org/2000/svg"
 width="1600.000000pt" height="900.000000pt" viewBox="0 0 1600.000000 900.000000"
 preserveAspectRatio="xMidYMid meet">

<g transform="translate(0.000000,900.000000) scale(0.100000,-0.100000)"
fill="#000000" stroke="none">
<path d="M0 4500 l0 -4500 3057 0 c1681 0 3054 2 3052 4 -2 2 -33 26 -69 52
-36 27 -79 59 -95 71 -102 77 -426 310 -519 373 -61 41 -129 89 -150 105 -22
17 -54 39 -72 50 -33 21 -191 131 -234 164 -14 10 -79 57 -145 103 -66 45
-133 94 -148 108 -16 14 -46 37 -67 51 -22 15 -65 47 -97 73 -127 101 -269
209 -293 221 -14 8 -72 62 -130 120 -58 59 -150 144 -206 190 -173 143 -177
154 -194 460 -16 287 -9 438 25 524 27 70 31 91 15 91 -5 0 -10 5 -10 10 0 6
4 9 8 8 11 -4 68 63 76 89 10 30 51 61 92 69 50 9 33 21 -43 28 -38 4 -83 10
-102 13 -26 4 -32 3 -26 -7 6 -10 4 -12 -8 -7 -10 4 -20 0 -26 -11 -9 -15 -10
-15 -11 3 0 11 11 32 25 45 14 14 49 57 79 96 69 91 124 124 326 194 224 77
436 127 592 140 340 27 427 32 650 40 282 10 444 0 533 -32 l60 -21 75 28
c108 39 219 75 265 85 22 5 182 41 355 80 173 39 366 82 429 96 217 45 418 56
521 30 157 -41 214 -67 372 -173 129 -86 173 -129 218 -216 21 -40 31 -49 65
-58 22 -5 51 -14 65 -19 14 -5 72 -23 130 -41 58 -17 191 -60 295 -95 105 -35
289 -88 410 -119 121 -31 245 -62 275 -70 73 -19 180 -34 180 -24 0 4 -7 9
-15 13 -27 10 -34 47 -14 81 10 16 21 48 25 70 4 22 16 57 26 77 32 62 22 215
-16 240 -7 5 -11 57 -11 143 1 76 -3 135 -8 135 -5 0 -7 17 -4 38 3 20 2 55
-3 77 -5 28 -8 -11 -10 -130 -1 -93 -6 -199 -9 -235 -8 -71 -5 1786 4 2520 14
1248 16 1557 8 1577 -4 12 -9 -191 -11 -470 -1 -271 -5 -618 -9 -772 -4 -154
-7 -345 -8 -425 -1 -335 -5 -533 -11 -528 -3 4 -5 31 -5 62 0 55 -1 56 -30 56
-23 0 -29 -5 -30 -22 -1 -22 -1 -22 -9 2 -8 24 -8 24 -9 2 -1 -12 -8 -25 -16
-28 -8 -4 -12 -11 -9 -16 4 -6 10 -5 15 3 6 9 9 1 10 -26 l2 -40 7 40 7 40 2
-41 c1 -32 5 -41 17 -40 9 0 19 -5 21 -11 7 -19 -53 -17 -61 2 -3 8 -11 15
-18 15 -9 0 -9 -3 2 -10 12 -8 12 -10 -3 -16 -10 -3 -29 -4 -42 -2 -23 5 -25
2 -25 -28 0 -31 -2 -33 -42 -37 l-43 -4 43 -1 c57 -3 54 -19 -5 -24 -66 -6
-73 -2 -73 42 0 32 -4 38 -25 42 -17 4 -29 -1 -39 -16 l-15 -21 -20 25 -21 25
0 -34 0 -33 -80 7 -80 7 0 -46 0 -46 -40 0 -40 0 0 60 c0 59 -16 83 -27 40 -3
-11 -9 -20 -13 -20 -4 0 -10 -9 -13 -20 -5 -18 -14 -20 -96 -20 -84 0 -91 -1
-91 -20 0 -18 -7 -20 -54 -20 -30 0 -58 -4 -61 -10 -3 -5 -15 -10 -26 -10 -15
0 -19 7 -19 31 l0 31 -57 -4 c-52 -3 -58 -1 -69 20 -27 54 -34 48 -34 -26 l0
-72 -120 0 -120 0 0 -31 c0 -16 -4 -28 -9 -25 -5 4 -5 23 1 46 12 47 5 59 -22
42 -11 -7 -45 -12 -75 -12 -30 0 -55 -4 -55 -10 0 -5 -18 -10 -40 -10 l-40 0
0 41 c0 24 -4 38 -10 34 -6 -3 -10 -31 -10 -61 0 -47 -2 -54 -20 -54 -18 0
-20 7 -20 54 0 30 -4 58 -10 61 -5 3 -10 1 -10 -5 0 -7 -6 -10 -14 -7 -19 8
-46 -28 -46 -62 0 -52 -8 -61 -56 -61 -44 0 -44 0 -44 -35 0 -34 -1 -35 -40
-35 -29 0 -40 -4 -40 -15 0 -11 -11 -15 -40 -15 l-40 0 0 46 c0 41 -2 45 -16
33 -16 -13 -16 -64 0 -101 12 -27 -30 -24 -44 3 -7 11 -14 18 -17 15 -3 -3
-14 -1 -24 5 -24 13 -61 -6 -58 -29 4 -48 2 -50 -81 -57 -44 -4 -80 -11 -80
-16 0 -4 -37 -10 -82 -12 l-83 -3 83 -2 c76 -2 82 -4 82 -23 0 -19 -5 -21 -57
-17 -52 3 -58 1 -69 -20 -22 -44 -34 -49 -34 -13 0 26 -3 32 -16 27 -9 -3 -18
-6 -20 -6 -2 0 -4 -13 -4 -28 0 -16 -8 -36 -18 -45 -24 -22 -30 -21 -34 3 -6
38 -23 22 -34 -32 -10 -49 -11 -51 -19 -25 l-8 28 -81 -5 c-44 -3 -82 -5 -83
-6 -2 0 -3 -17 -3 -37 0 -31 -5 -40 -27 -50 -38 -18 -53 -16 -53 7 0 15 7 20
25 20 19 0 25 5 25 21 0 18 -5 20 -37 17 -29 -2 -38 1 -41 15 -2 10 3 17 12
17 9 0 16 7 16 15 0 19 -9 19 -30 0 -10 -9 -41 -18 -71 -22 -30 -3 -57 -10
-60 -15 -7 -10 -58 15 -70 34 -7 10 -9 9 -9 -4 0 -26 -158 -24 -180 2 -8 10
-25 21 -37 25 -20 5 -23 3 -23 -22 l0 -28 -19 24 c-26 33 -92 36 -106 4 -15
-34 -35 -28 -35 10 l0 32 -20 -25 -20 -25 -20 25 c-11 14 -20 20 -20 14 0 -7
-31 -15 -80 -19 -58 -5 -80 -11 -80 -21 0 -8 -10 -14 -22 -14 -22 -1 -22 -1
-5 -15 18 -13 18 -14 -2 -24 -33 -18 -51 -13 -51 14 0 31 -22 33 -35 3 -6 -14
-25 -27 -47 -33 -20 -5 -40 -13 -44 -17 -4 -5 -31 -8 -61 -8 -50 0 -53 -1 -53
-25 0 -22 -4 -25 -40 -25 -29 0 -40 4 -40 15 0 20 -5 19 -48 -10 -23 -16 -51
-25 -74 -25 -32 0 -37 -3 -40 -26 -4 -36 -31 -53 -58 -37 -16 11 -21 10 -29
-4 -6 -11 -5 -23 2 -35 9 -13 8 -21 -1 -30 -11 -11 -16 -9 -28 7 -13 17 -16
18 -24 5 -15 -24 -12 -50 7 -50 12 0 14 -3 6 -11 -8 -8 -17 -7 -32 3 -18 11
-23 10 -36 -10 -9 -12 -24 -22 -34 -22 -9 0 -37 -23 -61 -51 -24 -28 -49 -57
-55 -63 -6 -6 -14 -19 -18 -28 -7 -20 -33 -24 -39 -7 -6 18 -36 -1 -42 -27 -5
-17 -13 -24 -31 -24 -13 0 -27 -4 -30 -10 -3 -6 -17 -10 -31 -10 -13 0 -24 -5
-24 -11 0 -6 8 -8 19 -4 11 3 23 1 26 -6 11 -16 -16 -29 -37 -18 -14 7 -18 6
-18 -6 0 -8 -3 -15 -7 -15 -5 0 -22 -14 -40 -30 -18 -17 -35 -26 -38 -20 -11
17 -25 0 -25 -30 0 -15 -3 -36 -6 -44 -6 -15 -8 -15 -20 1 -12 17 -13 16 -14
-9 0 -23 -4 -28 -25 -28 -22 0 -25 -4 -25 -36 0 -26 -8 -46 -29 -69 -16 -18
-31 -39 -35 -47 -4 -9 -8 -9 -11 -2 -3 6 -12 20 -20 30 -14 18 -14 18 -15 -8
0 -18 -5 -28 -15 -28 -19 0 -19 -29 0 -36 8 -4 15 -15 15 -25 0 -15 -7 -19
-40 -19 l-40 0 0 -62 c0 -35 -4 -58 -8 -53 -9 13 -49 35 -63 35 -7 0 -8 -13
-4 -40 l7 -40 -46 0 c-40 0 -46 -3 -46 -21 0 -12 -11 -30 -24 -40 -14 -11 -28
-28 -31 -39 -5 -16 -15 -20 -56 -20 -42 0 -49 -3 -49 -20 0 -17 7 -20 40 -20
22 0 40 -4 40 -10 0 -5 -19 -10 -42 -10 -40 0 -41 -1 -22 -16 18 -15 18 -15
-4 -11 -23 5 -78 -34 -65 -46 3 -4 -2 -16 -12 -27 -9 -10 -15 -26 -12 -34 6
-14 -12 -26 -40 -26 -11 0 -14 8 -11 28 3 22 0 28 -14 29 -10 1 -18 -5 -18
-13 0 -8 5 -14 10 -14 17 0 11 -25 -10 -38 -28 -17 -25 -28 16 -56 22 -15 31
-27 24 -31 -6 -4 -17 -1 -25 5 -13 10 -16 7 -21 -19 -4 -17 -10 -31 -15 -31
-4 0 -2 -20 5 -44 12 -41 12 -43 -5 -39 -15 4 -19 15 -19 45 0 47 -15 43 -24
-7 -4 -19 -16 -44 -28 -54 -11 -11 -17 -24 -13 -30 9 -16 25 -13 25 4 0 9 6
12 16 8 13 -5 12 -9 -8 -27 -33 -30 -48 -69 -48 -126 0 -43 -3 -50 -20 -50
-11 0 -20 5 -20 11 0 5 -5 7 -11 3 -8 -4 -2 -12 15 -21 28 -15 36 -43 12 -43
-14 0 -33 -66 -39 -135 -1 -18 -7 -29 -14 -27 -8 1 -13 -9 -13 -27 0 -38 -27
-68 -70 -79 -33 -8 -35 -11 -42 -58 -3 -27 -10 -61 -13 -76 -5 -19 -3 -28 5
-28 7 0 3 -11 -9 -26 -12 -15 -21 -34 -21 -43 0 -9 -9 -33 -19 -54 -10 -20
-15 -37 -10 -37 17 0 9 -69 -11 -102 -11 -18 -20 -41 -20 -50 0 -9 -5 -29 -11
-45 -11 -28 -11 -28 -22 -5 -19 42 -27 22 -27 -74 0 -80 3 -99 18 -110 16 -13
16 -13 0 -14 -15 0 -18 -10 -18 -63 0 -51 -3 -64 -20 -75 -11 -7 -20 -21 -20
-31 0 -27 -10 -51 -22 -51 -26 0 -50 -51 -29 -64 5 -3 11 -15 14 -26 3 -12 1
-18 -5 -14 -6 4 -8 -4 -6 -17 2 -18 8 -23 25 -21 12 2 24 -2 28 -8 5 -8 -2
-10 -21 -8 -16 2 -33 -3 -39 -9 -5 -7 -24 -14 -40 -16 -17 -2 -35 -6 -41 -10
-21 -12 -100 -37 -121 -37 -12 0 -23 -4 -25 -9 -1 -6 -30 -15 -63 -21 -65 -11
-157 -32 -220 -50 -40 -12 -153 -39 -250 -60 -27 -6 -57 -14 -65 -17 -8 -4
-18 -6 -22 -5 -4 1 -22 -5 -40 -14 l-33 -15 30 4 c63 10 245 49 350 77 172 45
334 82 435 99 30 5 68 12 83 16 28 7 28 7 22 -28 -4 -21 -3 -37 4 -41 6 -4 11
-25 11 -47 0 -32 3 -39 19 -39 11 0 22 -9 26 -19 3 -11 14 -22 23 -24 13 -4
11 -5 -5 -6 -12 0 -25 -6 -28 -11 -10 -16 14 -40 38 -40 41 0 1 -19 -93 -44
-52 -14 -120 -34 -151 -44 -30 -11 -75 -23 -99 -27 -24 -4 -51 -11 -60 -16
-13 -8 -400 -108 -500 -129 -19 -5 -71 -18 -115 -30 -80 -22 -164 -42 -263
-62 -52 -10 -79 -5 -53 11 11 7 11 10 0 17 -7 4 -14 3 -17 -4 -2 -7 -11 -12
-19 -12 -12 0 -9 7 10 26 25 24 29 52 6 38 -5 -3 -15 -1 -22 4 -7 6 -23 12
-37 15 -16 3 -10 5 18 6 49 1 56 16 12 26 -38 8 -46 21 -20 35 16 9 20 21 20
65 0 53 -1 55 -27 56 -27 2 -27 2 -3 6 14 3 29 9 35 14 5 5 17 9 26 9 10 0 55
12 101 26 46 14 101 30 123 36 22 6 49 14 60 18 19 8 19 9 -2 9 -12 1 -53 -6
-92 -14 -39 -8 -98 -17 -131 -21 -51 -5 -60 -3 -60 10 0 9 6 16 13 16 8 0 7 4
-3 10 -10 6 -11 10 -2 10 19 0 14 24 -10 50 -13 13 -21 34 -20 46 2 13 -6 31
-19 43 l-23 21 22 0 22 0 -20 40 c-14 27 -27 40 -38 38 -17 -3 -18 1 -5 64 4
23 1 29 -23 38 -18 7 -24 14 -17 21 7 7 7 27 2 57 -5 25 -7 54 -3 64 3 12 -1
20 -12 25 -10 4 -19 2 -22 -5 -5 -15 -29 -16 -37 -2 -3 6 2 13 12 17 29 11 50
36 35 41 -6 2 -12 17 -12 33 0 22 -5 29 -20 29 -27 0 -27 41 0 65 25 22 25 32
3 38 -17 4 -17 5 0 6 25 2 21 29 -5 33 -28 4 -28 20 1 33 25 12 27 25 4 25
-10 0 -25 5 -33 10 -12 7 -12 12 -2 22 6 6 12 34 12 60 0 39 3 48 18 48 9 0
-2 9 -25 20 -34 15 -43 24 -42 42 l2 23 4 -22 c2 -13 8 -23 13 -23 19 0 20 21
4 55 -9 19 -14 45 -11 56 3 12 3 18 0 15 -3 -3 -12 2 -19 12 -12 15 -15 15
-23 2 -7 -11 -13 -12 -21 -4 -15 15 -2 44 20 44 21 0 30 19 30 61 0 40 -18
117 -37 154 -13 27 -13 34 6 78 11 26 16 47 11 47 -6 0 -10 35 -10 80 0 69 2
80 18 80 14 1 12 3 -6 13 -24 14 -20 27 10 27 11 0 18 7 18 20 0 18 -4 20 -40
14 -38 -6 -40 -5 -40 20 0 19 5 26 19 26 23 0 27 11 30 73 2 44 0 47 -24 47
-14 0 -25 5 -25 11 0 6 -7 17 -15 25 -19 20 -19 40 0 48 10 4 15 -1 15 -14 0
-21 7 -24 28 -12 16 10 5 42 -14 42 -8 0 -14 9 -14 20 0 13 -7 20 -19 20 -15
0 -19 6 -18 27 1 20 -4 31 -21 38 -36 16 -27 35 18 35 22 0 40 -4 40 -10 0 -5
7 -10 15 -10 8 0 15 4 15 9 0 11 -35 21 -76 21 -27 0 -32 4 -38 31 -8 39 -7
129 1 109 4 -8 13 -21 22 -27 15 -12 14 -14 -1 -27 -32 -24 -22 -46 21 -46 45
0 77 26 39 32 -16 2 -24 11 -26 28 -2 13 -11 30 -20 37 -11 8 -12 12 -4 13 18
0 14 28 -6 34 -22 7 -43 55 -36 82 3 12 17 27 30 34 26 14 32 29 12 31 -7 1
-34 1 -60 -1 -43 -2 -48 0 -48 19 0 18 6 21 40 21 35 0 40 3 40 24 0 15 7 26
20 29 23 6 38 36 23 46 -6 3 -17 20 -26 36 l-16 30 -1 -52 0 -53 -40 0 c-39 0
-40 1 -40 34 0 25 5 35 20 39 33 8 40 46 19 89 -11 21 -16 38 -12 38 5 0 -1 7
-11 15 -11 8 -37 15 -58 15 -27 0 -38 4 -38 15 0 11 11 15 40 15 23 0 40 5 40
11 0 6 8 1 18 -11 l17 -21 22 24 21 25 -29 12 c-30 13 -38 33 -18 46 17 10 6
114 -14 129 -10 7 -17 19 -17 28 0 8 -5 17 -12 19 -9 3 -9 6 0 12 7 4 12 2 12
-3 0 -6 5 -11 10 -11 6 0 10 7 10 15 0 8 -5 15 -11 15 -8 0 -10 20 -7 60 3 48
9 64 26 76 24 17 21 34 -6 34 -10 0 -28 22 -44 55 -16 30 -28 57 -28 60 0 11
28 4 40 -10 8 -10 27 -14 54 -13 l41 1 -42 4 c-36 3 -43 8 -43 25 0 11 8 27
18 34 16 13 16 15 -2 29 -11 8 -30 15 -42 15 l-22 0 24 46 25 47 -20 21 c-13
13 -20 33 -18 51 1 22 -4 32 -20 40 -28 12 -30 35 -3 35 16 0 20 7 20 30 0 23
4 30 20 30 11 0 20 -5 20 -11 0 -8 5 -8 15 1 24 20 17 30 -20 30 -19 0 -35 -4
-35 -10 0 -5 -9 -10 -20 -10 -16 0 -20 7 -20 31 l0 31 53 -4 52 -3 0 45 c0 44
-1 45 -45 61 -42 16 -45 19 -48 58 -2 30 1 41 11 41 8 0 18 -10 21 -23 l6 -22
13 23 c7 12 16 20 19 17 3 -3 16 -1 29 4 l24 10 -27 0 c-17 1 -28 7 -28 15 0
8 -7 17 -16 20 -10 4 -14 14 -12 24 3 10 -3 34 -12 52 -9 18 -15 42 -12 52 2
10 -2 20 -12 24 -14 5 -16 26 -16 141 0 74 -4 143 -10 153 -12 22 10 33 63 30
55 -3 64 -1 43 11 -16 10 -18 21 -14 98 3 47 3 69 1 49 -3 -23 -9 -38 -17 -38
-8 0 -16 -9 -19 -21 -3 -11 -15 -23 -26 -26 -12 -3 -21 -13 -21 -23 0 -15 -18
-30 -36 -30 -6 0 -5 52 3 79 l6 23 13 -23 c13 -24 13 -24 14 7 0 25 5 33 25
38 32 8 32 24 0 32 -25 6 -25 7 -25 116 l0 110 45 -4 c35 -2 44 0 40 10 -3 8
-5 20 -5 28 0 10 -12 14 -40 14 l-40 0 0 54 c0 39 -4 55 -15 60 -12 4 -15 27
-15 116 0 89 3 112 15 116 8 4 15 12 15 20 0 10 12 14 40 14 36 0 40 3 40 25
0 23 -4 25 -42 25 -52 0 -83 15 -54 26 16 6 14 9 -13 26 -38 25 -39 32 -2 54
23 14 30 26 34 58 2 23 10 56 18 74 11 27 11 34 1 41 -8 5 -12 23 -10 47 3 33
6 39 25 37 24 -3 38 25 28 56 -6 20 -54 25 -66 7 -4 -5 -19 -4 -35 2 -26 9
-26 11 -6 11 15 1 22 7 22 20 0 11 5 23 10 26 6 3 10 17 10 31 0 20 5 24 29
24 37 0 45 12 23 31 -23 19 -18 109 5 109 8 0 21 7 29 15 13 12 13 21 4 50
-11 32 -30 48 -30 25 0 -5 5 -10 10 -10 6 0 10 -10 9 -22 l0 -23 -9 23 c-11
27 -50 30 -57 4 -3 -14 -12 -17 -44 -14 -46 5 -53 22 -9 22 35 0 80 26 80 45
0 7 -14 22 -31 33 -19 12 -27 22 -20 26 6 4 11 2 11 -3 0 -6 6 -11 14 -11 9 0
17 32 26 120 9 88 17 120 26 120 11 0 14 20 14 85 0 71 -3 87 -17 92 -15 6
-15 7 3 14 10 4 36 8 57 8 20 1 37 4 38 9 0 4 2 31 4 60 3 49 2 52 -21 52 -13
0 -24 4 -24 9 0 15 28 33 47 29 23 -3 43 9 43 28 0 10 -12 14 -40 14 -42 0
-50 9 -25 30 8 7 15 21 15 31 0 12 7 19 20 19 17 0 20 7 20 49 0 100 29 107
32 8 1 -50 2 -53 5 -19 l4 42 50 0 c47 0 49 1 43 24 -7 28 22 49 59 44 15 -2
25 5 35 26 8 16 23 31 33 33 29 8 23 33 -7 33 -14 0 -23 4 -19 10 9 14 42 12
49 -2 5 -10 7 -10 12 -1 4 9 11 7 27 -7 34 -33 50 -21 25 19 -6 10 -8 27 -4
37 7 17 10 16 32 -11 l24 -30 24 30 c13 16 21 35 19 42 -6 15 -83 18 -83 3 0
-5 -4 -10 -9 -10 -5 0 -4 11 2 25 10 20 19 25 50 25 27 0 37 -4 37 -16 0 -13
7 -15 31 -10 17 3 35 6 40 6 5 0 9 7 9 15 0 8 7 15 15 15 8 0 15 7 15 15 0 8
-7 15 -15 15 -8 0 -15 -7 -15 -15 0 -16 -25 -21 -34 -7 -5 9 38 52 52 52 15 0
62 -25 62 -32 0 -5 5 -8 10 -8 6 0 10 11 10 25 0 13 6 28 14 32 21 12 9 73
-15 73 -14 0 -19 -7 -19 -25 0 -14 -4 -25 -10 -25 -13 0 -13 23 2 55 11 24 48
36 48 15 0 -5 9 -10 20 -10 11 0 20 -5 20 -12 0 -6 16 6 35 28 26 29 41 38 60
36 21 -3 25 1 25 20 0 29 17 48 42 48 19 0 25 -25 8 -35 -5 -3 -10 -13 -10
-21 0 -13 3 -13 22 0 12 9 29 16 36 16 16 0 36 19 45 43 3 9 13 17 22 17 14 0
20 -22 17 -62 -1 -10 5 -18 13 -18 16 0 18 6 19 55 1 20 6 30 16 30 11 0 16
-15 18 -62 3 -62 3 -63 32 -63 28 0 30 3 30 36 0 26 8 43 30 66 25 24 31 27
36 14 8 -21 40 -21 48 0 5 14 10 13 31 -10 13 -14 29 -26 34 -26 6 0 8 -7 4
-16 -4 -12 -1 -15 13 -12 11 2 18 11 18 21 -1 13 7 17 37 17 33 0 39 -3 39
-21 0 -18 2 -19 15 -9 14 12 14 15 0 30 -21 23 -19 30 8 30 13 0 34 -10 46
-21 23 -22 24 -22 54 -4 22 13 32 15 35 7 2 -7 21 -12 43 -12 36 0 39 -2 40
-27 l1 -28 11 26 c15 33 37 26 37 -12 0 -22 4 -28 13 -22 6 4 17 8 22 8 6 0
14 10 20 23 11 24 25 30 25 9 0 -31 35 -46 113 -49 66 -2 77 -6 77 -20 0 -11
8 -18 20 -18 11 0 20 5 20 10 0 6 9 10 20 10 11 0 20 -4 20 -10 0 -5 -7 -10
-15 -10 -20 0 -19 -29 2 -49 14 -14 28 -15 95 -7 43 5 78 13 78 18 0 19 21 6
35 -22 15 -28 45 -42 45 -20 0 6 15 10 34 10 58 0 67 7 60 51 -4 24 -3 39 4
39 6 0 13 -18 17 -40 7 -41 19 -51 29 -25 3 8 14 15 24 15 26 0 45 25 38 48
-4 13 -1 22 10 26 26 10 32 -1 27 -44 -4 -26 -2 -40 6 -40 6 0 11 5 11 12 0 7
12 23 28 36 l27 24 3 -26 c3 -24 7 -26 48 -26 33 0 46 5 51 17 4 9 1 19 -5 21
-18 6 -15 39 4 46 10 4 14 14 11 25 -5 21 17 36 36 24 7 -4 22 -6 35 -4 17 2
22 -3 22 -19 0 -17 -4 -21 -20 -17 -17 4 -20 0 -20 -23 0 -16 -5 -30 -12 -32
-14 -5 -4 -38 12 -38 5 0 10 14 10 30 0 17 4 30 8 30 14 0 32 -24 33 -44 1
-12 5 -6 10 14 5 19 6 47 3 63 -3 16 -1 27 5 27 20 0 11 18 -11 23 -13 3 -40
10 -62 16 -34 8 -41 7 -60 -14 -13 -14 -27 -21 -34 -16 -8 5 -5 13 11 26 l22
19 -35 7 c-19 4 -102 23 -185 43 -246 60 -467 110 -578 131 -43 8 -104 21
-135 29 -31 8 -90 20 -129 27 -40 7 -73 16 -73 21 0 4 -684 8 -1520 8 l-1520
0 0 -4500z m3870 4262 c-8 -3 -18 -9 -21 -14 -3 -5 -8 -1 -11 10 -4 16 -1 18
21 14 17 -4 21 -7 11 -10z m-1390 -18 c0 -8 -4 -12 -10 -9 -5 3 -10 10 -10 16
0 5 5 9 10 9 6 0 10 -7 10 -16z m1520 -4 c0 -11 5 -20 11 -20 6 0 8 -9 4 -20
-3 -11 -2 -20 3 -20 11 0 25 -30 18 -38 -10 -9 -33 24 -38 53 -3 17 -9 38 -13
48 -4 10 -3 17 4 17 6 0 11 -9 11 -20z m70 -43 c0 -15 -3 -15 -20 -5 -23 14
-26 34 -7 41 14 5 27 -11 27 -36z m-1511 -24 l-2 -58 -7 50 c-7 47 -5 65 6 65
2 0 3 -26 3 -57z m1544 50 c3 -5 -1 -14 -9 -21 -12 -11 -14 -9 -14 8 0 20 14
27 23 13z m-1863 -33 c0 -5 -5 -10 -11 -10 -5 0 -7 5 -4 10 3 6 8 10 11 10 2
0 4 -4 4 -10z m160 0 c0 -5 -4 -10 -10 -10 -5 0 -10 5 -10 10 0 6 5 10 10 10
6 0 10 -4 10 -10z m1576 -9 c-7 -11 -56 -21 -56 -10 0 6 13 11 53 18 5 0 6 -3
3 -8z m-136 -151 c0 -5 -18 -10 -40 -10 -22 0 -40 5 -40 10 0 6 18 10 40 10
22 0 40 -4 40 -10z m-1760 -30 c0 -5 -8 -10 -17 -10 -15 0 -16 2 -3 10 19 12
20 12 20 0z m-393 -172 c-3 -7 -5 -2 -5 12 0 14 2 19 5 13 2 -7 2 -19 0 -25z
m-77 -65 c0 -37 -21 -49 -72 -45 -10 1 -18 9 -18 17 0 13 4 14 20 5 16 -9 22
-6 36 15 19 29 34 33 34 8z m70 -33 c0 -23 -4 -30 -20 -30 -24 0 -26 17 -3 42
21 24 23 23 23 -12z m-239 -126 c-9 -28 -9 -29 -10 -3 -1 14 2 29 6 32 11 12
13 2 4 -29z m-81 -176 c0 -16 -3 -19 -11 -11 -6 6 -8 16 -5 22 11 17 16 13 16
-11z m-110 -333 c0 -8 -4 -15 -10 -15 -5 0 -10 7 -10 15 0 8 5 15 10 15 6 0
10 -7 10 -15z m-43 -67 c-3 -8 -6 -5 -6 6 -1 11 2 17 5 13 3 -3 4 -12 1 -19z
m73 -48 c0 -11 -4 -20 -9 -20 -14 0 -23 18 -16 30 10 17 25 11 25 -10z m-123
-246 c-3 -3 -12 -4 -19 -1 -8 3 -5 6 6 6 11 1 17 -2 13 -5z m3 -54 c0 -5 -4
-10 -10 -10 -5 0 -10 5 -10 10 0 6 5 10 10 10 6 0 10 -4 10 -10z m120 0 c0 -5
-16 -10 -35 -10 -19 0 -35 5 -35 10 0 6 16 10 35 10 19 0 35 -4 35 -10z m0
-40 c0 -12 -5 -17 -14 -14 -8 3 -16 -4 -19 -18 -5 -17 -9 -20 -18 -11 -16 16
-6 48 14 47 9 -1 17 2 17 7 0 5 5 9 10 9 6 0 10 -9 10 -20z m-25 -141 c-4 -5
-13 -9 -21 -9 -12 0 -12 2 -2 14 14 15 32 11 23 -5z m-35 -31 c0 -7 -5 -20
-10 -28 -8 -12 -10 -9 -10 13 0 15 5 27 10 27 6 0 10 -6 10 -12z m60 -140 c0
-50 0 -51 -20 -33 -29 26 -20 84 13 85 4 0 7 -23 7 -52z m-3 -100 c-3 -7 -5
-2 -5 12 0 14 2 19 5 13 2 -7 2 -19 0 -25z m-32 -38 c4 -6 -5 -10 -19 -10 -20
0 -26 -5 -26 -21 0 -24 -23 -21 -28 4 -2 10 3 17 12 17 9 0 16 5 16 10 0 6 9
10 19 10 11 0 23 -4 26 -10z m-98 -256 c-3 -3 -12 -4 -19 -1 -8 3 -5 6 6 6 11
1 17 -2 13 -5z m49 -81 c-10 -10 -19 5 -10 18 6 11 8 11 12 0 2 -7 1 -15 -2
-18z m4 -73 c0 -5 -7 -10 -16 -10 -8 0 -12 5 -9 10 3 6 10 10 16 10 5 0 9 -4
9 -10z m-320 -30 c0 -5 -5 -10 -11 -10 -5 0 -7 5 -4 10 3 6 8 10 11 10 2 0 4
-4 4 -10z m320 -200 c0 -5 -5 -10 -11 -10 -5 0 -7 5 -4 10 3 6 8 10 11 10 2 0
4 -4 4 -10z m-3 -162 c-3 -8 -6 -5 -6 6 -1 11 2 17 5 13 3 -3 4 -12 1 -19z
m-317 -118 c0 -5 -7 -10 -16 -10 -8 0 -12 5 -9 10 3 6 10 10 16 10 5 0 9 -4 9
-10z m340 -155 c10 -12 10 -15 -4 -15 -9 0 -16 7 -16 15 0 8 2 15 4 15 2 0 9
-7 16 -15z m20 -45 c0 -5 -4 -10 -10 -10 -5 0 -10 5 -10 10 0 6 5 10 10 10 6
0 10 -4 10 -10z m-68 -152 c-9 -9 -15 -9 -24 0 -9 9 -7 12 12 12 19 0 21 -3
12 -12z m73 -28 c-3 -5 -10 -10 -16 -10 -5 0 -9 5 -9 10 0 6 7 10 16 10 8 0
12 -4 9 -10z m15 -90 c0 -11 5 -20 10 -20 6 0 10 -14 10 -31 l0 -32 -30 34
c-35 40 -39 69 -10 69 13 0 20 -7 20 -20z m8277 -147 c-2 -21 -4 -4 -4 37 0
41 2 58 4 38 2 -21 2 -55 0 -75z m-8337 77 c0 -5 -2 -10 -4 -10 -3 0 -8 5 -11
10 -3 6 -1 10 4 10 6 0 11 -4 11 -10z m50 -30 c0 -5 -11 -10 -25 -10 -14 0
-25 5 -25 10 0 6 11 10 25 10 14 0 25 -4 25 -10z m30 -72 c0 -16 -3 -19 -11
-11 -6 6 -8 16 -5 22 11 17 16 13 16 -11z m7280 -39 c0 -16 -4 -28 -9 -25 -8
5 -3 56 5 56 2 0 4 -14 4 -31z m-7330 1 c0 -5 -7 -10 -15 -10 -8 0 -15 5 -15
10 0 6 7 10 15 10 8 0 15 -4 15 -10z m8307 -42 c-3 -7 -5 -2 -5 12 0 14 2 19
5 13 2 -7 2 -19 0 -25z m-8274 -75 c-13 -2 -33 -2 -45 0 -13 2 -3 4 22 4 25 0
35 -2 23 -4z m32 -43 c-27 -12 -43 -12 -25 0 8 5 22 9 30 9 10 0 8 -3 -5 -9z
m5975 -122 c0 -5 -4 -8 -10 -8 -5 0 -10 10 -10 23 0 18 2 19 10 7 5 -8 10 -18
10 -22z m-5990 -130 c0 -16 -3 -19 -11 -11 -6 6 -8 16 -5 22 11 17 16 13 16
-11z m4618 -10 c-6 -18 -25 -20 -31 -3 -5 10 0 15 14 15 12 0 19 -5 17 -12z
m902 -3 c0 -11 -11 -15 -40 -15 -29 0 -40 4 -40 15 0 11 11 15 40 15 29 0 40
-4 40 -15z m100 11 c0 -3 -4 -8 -10 -11 -5 -3 -10 -1 -10 4 0 6 5 11 10 11 6
0 10 -2 10 -4z m-5620 -156 c0 -5 -5 -10 -11 -10 -5 0 -7 5 -4 10 3 6 8 10 11
10 2 0 4 -4 4 -10z m52 -62 c-9 -9 -15 -9 -24 0 -9 9 -7 12 12 12 19 0 21 -3
12 -12z m3723 -88 c3 -5 1 -10 -4 -10 -6 0 -11 5 -11 10 0 6 2 10 4 10 3 0 8
-4 11 -10z m-3729 -64 c38 -38 42 -51 18 -60 -23 -9 -24 -8 -35 24 -12 33 -29
40 -29 13 0 -12 -3 -14 -10 -7 -8 8 -7 19 1 37 7 15 14 27 17 27 2 0 19 -15
38 -34z m-46 -166 c0 -11 -7 -20 -15 -20 -15 0 -21 21 -8 33 12 13 23 7 23
-13z m3437 -26 c-3 -3 -12 -4 -19 -1 -8 3 -5 6 6 6 11 1 17 -2 13 -5z m-3357
-54 c0 -13 -7 -20 -20 -20 -23 0 -26 10 -8 28 18 18 28 15 28 -8z m-52 -32
c-6 -18 -28 -21 -28 -4 0 9 7 16 16 16 9 0 14 -5 12 -12z m49 -90 c-3 -8 -6
-5 -6 6 -1 11 2 17 5 13 3 -3 4 -12 1 -19z m30 -490 c-3 -7 -5 -2 -5 12 0 14
2 19 5 13 2 -7 2 -19 0 -25z m8170 -150 c-3 -8 -6 -5 -6 6 -1 11 2 17 5 13 3
-3 4 -12 1 -19z m-5607 -8 c0 -5 -2 -10 -4 -10 -3 0 -8 5 -11 10 -3 6 -1 10 4
10 6 0 11 -4 11 -10z m-23 -42 c-3 -7 -5 -2 -5 12 0 14 2 19 5 13 2 -7 2 -19
0 -25z m-57 -11 c0 -17 -34 -57 -48 -57 -5 0 -13 -10 -16 -22 -6 -22 -7 -22
-17 -5 -10 17 -6 31 9 33 22 3 42 19 42 33 0 10 3 21 7 24 11 11 23 8 23 -6z
m30 -7 c0 -5 -5 -10 -11 -10 -5 0 -7 5 -4 10 3 6 8 10 11 10 2 0 4 -4 4 -10z
m5697 -27 c-3 -10 -5 -4 -5 12 0 17 2 24 5 18 2 -7 2 -21 0 -30z m-5877 -113
c0 -5 -7 -7 -15 -4 -8 4 -15 8 -15 10 0 2 7 4 15 4 8 0 15 -4 15 -10z m-33
-72 c-3 -8 -6 -5 -6 6 -1 11 2 17 5 13 3 -3 4 -12 1 -19z m-87 -324 c0 -8 -4
-14 -10 -14 -5 0 -10 9 -10 21 0 11 5 17 10 14 6 -3 10 -13 10 -21z m87 -46
c-3 -8 -6 -5 -6 6 -1 11 2 17 5 13 3 -3 4 -12 1 -19z m-2127 -328 c0 -28 -4
-40 -14 -40 -11 0 -12 8 -4 40 6 22 12 40 14 40 2 0 4 -18 4 -40z m1820 -84
c0 -3 -4 -8 -10 -11 -5 -3 -10 -1 -10 4 0 6 5 11 10 11 6 0 10 -2 10 -4z
m-1780 -176 c0 -13 -11 -13 -30 0 -12 8 -11 10 8 10 12 0 22 -4 22 -10z m-3
-152 c-3 -7 -5 -2 -5 12 0 14 2 19 5 13 2 -7 2 -19 0 -25z m3 -108 c0 -5 -5
-10 -11 -10 -5 0 -7 5 -4 10 3 6 8 10 11 10 2 0 4 -4 4 -10z m1720 -550 c0 -5
-4 -10 -10 -10 -5 0 -10 5 -10 10 0 6 5 10 10 10 6 0 10 -4 10 -10z m-167 -70
c3 -13 0 -20 -8 -20 -7 0 -15 -6 -18 -12 -3 -7 -5 2 -4 20 0 35 21 44 30 12z
m-1396 -32 c-3 -8 -6 -5 -6 6 -1 11 2 17 5 13 3 -3 4 -12 1 -19z m17 -33 c-4
-8 -8 -15 -10 -15 -2 0 -4 7 -4 15 0 8 4 15 10 15 5 0 7 -7 4 -15z m1426 0 c0
-8 -9 -15 -19 -15 -29 0 -35 18 -9 23 13 2 24 5 26 6 1 0 2 -6 2 -14z"/>
<path d="M4343 8683 c9 -2 17 -10 17 -18 0 -7 9 -15 20 -18 11 -3 20 -1 20 3
0 4 9 6 20 3 11 -3 17 -9 14 -14 -3 -5 2 -9 11 -9 9 0 14 4 11 9 -4 5 0 11 6
14 15 5 -92 38 -119 36 -16 -1 -16 -2 0 -6z"/>
<path d="M2944 8662 c23 -27 96 -32 96 -7 0 10 -10 15 -32 15 -18 0 -44 3 -58
7 -25 6 -25 6 -6 -15z"/>
<path d="M4480 8656 c0 -2 15 -9 33 -15 29 -10 30 -9 13 4 -18 14 -46 20 -46
11z"/>
<path d="M4320 8635 c0 -8 9 -15 20 -15 11 0 20 -4 20 -10 0 -5 9 -10 19 -10
12 0 21 -8 24 -22 l4 -23 2 23 c1 15 8 22 24 23 12 1 1 6 -25 11 -30 6 -48 16
-48 24 0 8 -9 14 -20 14 -11 0 -20 -7 -20 -15z"/>
<path d="M2720 8630 c0 -5 5 -10 10 -10 6 0 10 5 10 10 0 6 -4 10 -10 10 -5 0
-10 -4 -10 -10z"/>
<path d="M4560 8627 c0 -8 6 -18 13 -20 10 -4 10 -6 0 -6 -8 -1 -13 -14 -13
-32 0 -30 2 -31 31 -25 17 3 35 6 40 6 5 0 9 7 9 15 0 8 -7 15 -15 15 -8 0
-15 5 -15 10 0 7 6 7 19 0 13 -7 22 -7 26 0 12 19 38 11 32 -10 -3 -14 0 -19
12 -18 54 4 101 -3 101 -16 0 -15 22 -26 48 -25 14 0 13 2 -3 9 -18 8 -17 9 8
9 22 1 27 -3 27 -24 0 -31 32 -50 60 -35 18 9 20 8 20 -15 0 -23 4 -25 40 -25
38 0 40 -2 40 -30 0 -28 2 -30 39 -30 24 0 44 -6 52 -17 10 -11 10 -14 2 -9
-19 11 -15 -6 7 -34 l20 -25 20 25 c11 14 18 30 16 36 -2 6 0 17 5 25 17 25
39 -19 39 -77 0 -63 2 -64 116 -64 49 0 84 -4 84 -10 0 -5 18 -10 40 -10 32 0
40 -4 40 -19 0 -10 7 -25 16 -32 15 -12 19 -11 32 9 8 12 23 22 32 22 10 0 21
8 23 18 4 16 5 16 6 -1 0 -10 -6 -20 -14 -23 -23 -9 -19 -44 5 -44 11 0 20 5
20 10 0 19 33 10 56 -15 29 -31 34 -31 34 -1 0 28 27 43 33 18 3 -13 7 -11 17
11 17 34 21 34 43 -5 l19 -32 19 24 20 25 16 -22 c14 -21 24 -23 99 -23 70 0
84 -3 84 -16 0 -13 -9 -15 -44 -13 -34 3 -42 1 -38 -10 6 -16 108 -9 125 8 24
24 39 12 34 -26 -2 -21 -2 -30 0 -20 3 13 15 17 49 17 37 0 44 -3 44 -20 0
-11 7 -20 15 -20 8 0 15 9 15 19 0 31 17 34 25 4 3 -15 9 -22 13 -17 8 12 68
54 76 54 3 0 6 -9 6 -20 0 -19 7 -20 120 -20 73 0 120 -4 120 -10 0 -5 -18
-10 -40 -10 l-40 0 0 -56 c0 -40 4 -55 13 -52 6 3 14 15 15 29 2 13 9 30 14
37 14 17 38 15 38 -3 0 -12 16 -15 80 -15 73 0 80 -2 80 -20 0 -13 7 -20 20
-20 11 0 20 5 20 10 0 6 9 10 20 10 11 0 20 -7 20 -15 0 -8 -9 -15 -20 -15
-17 0 -20 -7 -20 -39 0 -26 5 -41 16 -45 22 -9 24 -8 24 9 0 11 11 15 38 15
41 0 68 -22 90 -72 12 -30 32 -38 32 -13 0 11 11 15 40 15 22 0 40 5 40 10 0
6 18 10 40 10 22 0 40 -4 40 -10 0 -5 -18 -10 -40 -10 -40 0 -40 0 -40 -39 0
-38 1 -39 40 -43 36 -3 40 -1 40 19 0 27 18 31 27 6 7 -19 50 -63 61 -63 12 0
26 14 38 34 17 33 34 31 34 -3 l0 -31 120 0 c95 0 120 -3 120 -14 0 -9 -25
-16 -82 -24 l-83 -11 119 4 c70 3 122 9 126 15 8 12 23 -3 33 -33 8 -22 39
-35 45 -19 6 19 29 14 35 -8 3 -12 14 -20 26 -20 18 0 21 6 21 38 0 37 0 37
40 37 35 0 40 -2 40 -22 0 -20 5 -23 40 -23 29 0 40 -4 40 -15 0 -11 11 -15
40 -15 22 0 40 -4 40 -10 0 -5 18 -10 40 -10 36 0 40 3 40 25 0 25 1 25 80 25
73 0 80 2 80 20 0 18 -7 20 -60 20 -62 0 -72 7 -43 31 13 11 17 11 20 2 3 -8
21 -13 44 -13 21 0 39 -4 39 -10 0 -5 18 -10 40 -10 33 0 40 -3 40 -20 0 -17
7 -20 40 -20 33 0 40 3 40 20 0 17 7 20 40 20 33 0 40 -3 40 -20 0 -19 7 -20
160 -20 151 0 160 1 160 19 0 11 -8 22 -17 24 -10 3 -3 5 15 6 17 0 32 6 32
11 0 6 11 10 25 10 26 0 34 -14 13 -24 -7 -3 -2 -3 12 0 33 9 44 27 22 36 -24
9 -180 44 -282 63 -47 9 -107 22 -135 30 -27 8 -106 26 -175 40 -163 33 -336
71 -380 84 -19 5 -69 17 -110 25 -41 9 -154 34 -250 57 -96 22 -209 47 -250
55 -83 17 -111 22 -250 53 -52 12 -167 35 -255 51 -88 17 -193 38 -234 47 -41
9 -84 17 -95 19 -12 1 -59 11 -106 22 -96 23 -156 37 -250 57 -36 7 -103 22
-150 34 -47 11 -98 22 -115 23 -16 2 -32 6 -35 9 -3 3 -45 13 -95 23 -49 9
-103 21 -120 26 -78 23 -163 42 -310 71 -88 16 -179 34 -203 39 -30 5 -46 4
-55 -5 -8 -7 -20 -9 -32 -4 -19 7 -19 8 3 8 12 1 22 6 22 12 0 7 -17 10 -44 8
-24 -2 -42 -1 -40 2 5 8 -159 48 -326 79 -58 10 -115 22 -127 26 -17 5 -23 2
-23 -9z m727 -299 c-3 -7 -5 -2 -5 12 0 14 2 19 5 13 2 -7 2 -19 0 -25z m530
10 c-3 -8 -6 -5 -6 6 -1 11 2 17 5 13 3 -3 4 -12 1 -19z m-457 -48 c0 -5 -12
-10 -26 -10 -14 0 -23 4 -19 10 3 6 15 10 26 10 10 0 19 -4 19 -10z m628 3
c-10 -2 -26 -2 -35 0 -10 3 -2 5 17 5 19 0 27 -2 18 -5z m97 -3 c8 -13 -5 -13
-25 0 -13 8 -13 10 2 10 9 0 20 -4 23 -10z m-545 -17 c0 -5 -5 -15 -10 -23 -8
-12 -10 -11 -10 8 0 12 5 22 10 22 6 0 10 -3 10 -7z m813 -60 c-7 -2 -19 -2
-25 0 -7 3 -2 5 12 5 14 0 19 -2 13 -5z m106 -9 c2 -2 -12 -4 -33 -4 -22 0
-35 4 -31 10 5 9 52 4 64 -6z m42 -27 c-13 -13 -26 -3 -16 12 3 6 11 8 17 5 6
-4 6 -10 -1 -17z m150 -18 c-14 -6 -28 -6 -33 -1 -5 5 5 9 24 10 31 0 31 -1 9
-9z m69 -9 c0 -5 -4 -10 -9 -10 -6 0 -13 5 -16 10 -3 6 1 10 9 10 9 0 16 -4
16 -10z m-65 -20 c-11 -5 -27 -9 -35 -9 -9 0 -8 4 5 9 11 5 27 9 35 9 9 0 8
-4 -5 -9z m85 -24 c0 -8 -4 -18 -10 -21 -5 -3 -10 3 -10 14 0 12 5 21 10 21 6
0 10 -6 10 -14z m62 3 c3 -9 10 -9 27 0 28 15 39 7 21 -14 -17 -21 -64 -15
-68 8 -4 19 14 24 20 6z m93 2 c3 -5 1 -12 -5 -16 -5 -3 -10 1 -10 9 0 18 6
21 15 7z m740 -161 c3 -5 1 -10 -4 -10 -6 0 -11 5 -11 10 0 6 2 10 4 10 3 0 8
-4 11 -10z m150 -30 c-3 -5 -10 -10 -16 -10 -5 0 -9 5 -9 10 0 6 7 10 16 10 8
0 12 -4 9 -10z m-810 -30 c4 -6 -14 -9 -47 -8 l-53 1 45 7 c25 4 46 8 47 8 1
1 5 -2 8 -8z m1025 -26 c0 -8 -4 -12 -10 -9 -5 3 -10 10 -10 16 0 5 5 9 10 9
6 0 10 -7 10 -16z m256 -51 c-1 -1 -12 0 -25 4 -15 4 -19 8 -10 13 10 7 42
-10 35 -17z m-149 1 c-3 -3 -12 -4 -19 -1 -8 3 -5 6 6 6 11 1 17 -2 13 -5z
m108 -14 c-3 -5 -18 -10 -33 -10 -21 0 -24 2 -12 10 20 13 53 13 45 0z m210
-39 c10 -17 -15 -23 -31 -7 -14 15 -14 16 5 16 11 0 22 -4 26 -9z m176 -34
c-7 -7 -21 -7 -43 0 -18 6 -25 11 -15 12 9 1 17 5 17 11 0 6 10 5 25 -2 17 -7
22 -15 16 -21z m79 3 c12 -8 10 -9 -7 -7 -12 2 -26 6 -29 10 -11 11 19 8 36
-3z m85 -30 c0 -8 -10 -19 -22 -25 -13 -5 -23 -15 -23 -22 0 -7 -11 -13 -25
-13 -22 0 -25 4 -25 34 0 38 12 45 65 43 19 -1 30 -7 30 -17z m-901 -11 c-8
-14 -24 -10 -24 6 0 9 6 12 15 9 8 -4 12 -10 9 -15z m53 -6 c-3 -3 -11 -2 -17
2 -9 6 -9 10 1 16 14 8 27 -7 16 -18z m970 -3 c8 0 11 -5 8 -10 -4 -6 -11 -8
-16 -4 -5 3 -23 -2 -41 -10 -36 -19 -42 -16 -33 14 6 18 12 21 37 16 17 -3 37
-6 45 -6z m-807 -65 c0 -11 -11 -15 -40 -15 -29 0 -40 4 -40 15 0 11 11 15 40
15 29 0 40 -4 40 -15z"/>
<path d="M2280 8610 c0 -5 9 -10 20 -10 11 0 20 5 20 10 0 6 -9 10 -20 10 -11
0 -20 -4 -20 -10z"/>
<path d="M4706 8541 c-12 -19 12 -31 59 -29 l40 1 -42 4 c-29 3 -43 9 -45 21
-3 14 -5 14 -12 3z"/>
<path d="M4435 8530 c-4 -6 18 -10 60 -10 l65 0 -5 -27 c-5 -27 -5 -28 5 -4 6
14 7 28 3 31 -14 13 -121 21 -128 10z"/>
<path d="M3938 8513 c12 -2 32 -2 45 0 12 2 2 4 -23 4 -25 0 -35 -2 -22 -4z"/>
<path d="M4258 8513 c12 -2 32 -2 45 0 12 2 2 4 -23 4 -25 0 -35 -2 -22 -4z"/>
<path d="M3600 8490 c0 -21 24 -27 50 -10 11 7 9 11 -13 19 -37 14 -37 14 -37
-9z"/>
<path d="M4481 8484 c0 -11 3 -14 6 -6 3 7 2 16 -1 19 -3 4 -6 -2 -5 -13z"/>
<path d="M4818 8433 c12 -2 32 -2 45 0 12 2 2 4 -23 4 -25 0 -35 -2 -22 -4z"/>
<path d="M5040 8350 c0 -5 9 -10 19 -10 11 0 23 5 26 10 4 6 -5 10 -19 10 -14
0 -26 -4 -26 -10z"/>
<path d="M5112 8300 c0 -14 2 -19 5 -12 2 6 2 18 0 25 -3 6 -5 1 -5 -13z"/>
<path d="M1880 8265 c0 -8 5 -15 10 -15 6 0 10 7 10 15 0 8 -4 15 -10 15 -5 0
-10 -7 -10 -15z"/>
<path d="M5324 8185 c25 -19 36 -19 36 0 0 10 -10 15 -27 15 -27 -1 -27 -1 -9
-15z"/>
<path d="M5657 8124 c-8 -8 3 -34 14 -34 5 0 9 9 9 20 0 19 -11 26 -23 14z"/>
<path d="M1530 8030 c0 -5 5 -10 10 -10 6 0 10 5 10 10 0 6 -4 10 -10 10 -5 0
-10 -4 -10 -10z"/>
<path d="M6372 8028 c6 -18 28 -21 28 -4 0 9 -7 16 -16 16 -9 0 -14 -5 -12
-12z"/>
<path d="M1520 7816 c0 -9 7 -16 16 -16 17 0 14 22 -4 28 -7 2 -12 -3 -12 -12z"/>
<path d="M6898 7823 c12 -2 32 -2 45 0 12 2 2 4 -23 4 -25 0 -35 -2 -22 -4z"/>
<path d="M12800 7790 c-91 -15 -187 -31 -213 -35 -45 -6 -48 -8 -43 -30 5 -18
1 -24 -19 -29 -27 -7 -35 -36 -10 -36 8 0 15 -4 15 -10 0 -5 -4 -10 -10 -10
-5 0 -10 -9 -10 -20 0 -11 -4 -20 -9 -20 -12 0 -24 37 -16 50 8 12 -5 13 -23
1 -17 -10 -11 -47 6 -43 8 1 12 -15 12 -51 0 -29 5 -58 12 -65 9 -9 9 -12 0
-12 -8 0 -12 -20 -12 -60 l0 -60 -40 0 c-23 0 -40 5 -40 11 0 8 -17 10 -50 7
-55 -6 -71 5 -46 30 10 11 16 12 16 4 0 -7 15 -12 40 -12 l40 0 0 54 c0 46 -3
54 -21 59 -11 3 -23 15 -26 26 -6 24 -33 37 -33 16 0 -12 -16 -15 -80 -15
l-80 0 0 38 c0 20 -4 43 -9 51 -17 27 -21 -42 -7 -104 8 -33 13 -61 11 -63 -9
-9 -29 82 -29 138 l-1 65 45 5 c25 3 50 9 57 13 6 4 14 3 18 -3 9 -14 45 -12
43 3 -2 8 10 11 37 10 36 -2 37 -1 12 7 -17 5 -59 3 -115 -6 -48 -8 -94 -15
-102 -15 -51 -1 -153 -25 -157 -36 -3 -8 7 -25 23 -38 25 -21 29 -32 30 -87 3
-73 11 -152 24 -223 20 -110 20 -182 0 -170 -13 8 -40 -6 -40 -22 0 -8 4 -12
9 -9 5 3 15 -2 22 -11 12 -15 12 -16 -3 -10 -15 5 -18 1 -18 -23 0 -39 -19
-40 350 5 69 8 222 24 340 35 118 12 224 24 235 27 11 4 29 6 39 4 11 -2 39 0
63 4 l43 6 0 297 c0 287 -1 299 -22 345 -28 57 -24 57 -258 17z m-204 -59
c-11 -4 -23 -16 -27 -27 -7 -18 -8 -18 -8 3 -1 21 11 31 39 32 9 0 8 -3 -4 -8z
m-449 -143 c-3 -8 -6 -5 -6 6 -1 11 2 17 5 13 3 -3 4 -12 1 -19z m60 -170 c-2
-13 -4 -3 -4 22 0 25 2 35 4 23 2 -13 2 -33 0 -45z m-50 0 c-3 -7 -5 -2 -5 12
0 14 2 19 5 13 2 -7 2 -19 0 -25z m403 -48 c0 -23 -4 -30 -20 -30 -11 0 -20
-4 -20 -10 0 -5 -9 -10 -20 -10 -13 0 -20 -7 -20 -20 0 -17 7 -20 49 -20 58 0
84 -19 73 -53 -5 -12 -8 -33 -7 -47 1 -23 -3 -26 -30 -23 -27 3 -23 -1 14 -13
11 -4 12 -7 2 -17 -9 -9 -14 -9 -20 1 -4 7 -15 10 -25 6 -17 -6 -16 -8 5 -20
l24 -12 -28 -7 c-15 -4 -42 -5 -59 -1 -18 3 -37 1 -44 -5 -11 -9 -14 -7 -14 9
0 24 16 38 23 20 3 -9 8 -6 13 7 4 11 12 23 18 27 6 5 3 8 -9 8 -11 0 -26 9
-33 20 -8 13 -8 20 -2 20 7 0 7 6 0 20 -8 16 -21 20 -60 20 -28 0 -50 -4 -50
-10 0 -5 -9 -10 -21 -10 -15 0 -20 5 -17 23 3 20 7 22 61 19 l57 -4 0 31 c0
29 2 31 40 31 29 0 40 4 40 15 0 8 9 15 20 15 15 0 20 7 20 25 0 18 5 25 20
25 16 0 20 -7 20 -30z m-380 1 c0 -6 -4 -13 -10 -16 -5 -3 -10 1 -10 9 0 9 5
16 10 16 6 0 10 -4 10 -9z m-20 -36 c0 -2 -10 -9 -22 -15 -22 -11 -22 -10 -4
4 21 17 26 19 26 11z m240 -170 c0 -19 -3 -35 -7 -35 -17 0 -30 16 -35 43 -5
23 -2 27 18 27 21 0 24 -5 24 -35z m-37 -56 l42 0 -38 -16 c-36 -15 -39 -14
-52 3 -7 10 -11 23 -7 28 3 6 7 5 10 -2 2 -7 22 -12 45 -13z m-96 -35 c-3 -3
-12 -4 -19 -1 -8 3 -5 6 6 6 11 1 17 -2 13 -5z m-74 -21 c-7 -2 -19 -2 -25 0
-7 3 -2 5 12 5 14 0 19 -2 13 -5z"/>
<path d="M12488 7123 c7 -3 16 -2 19 1 4 3 -2 6 -13 5 -11 0 -14 -3 -6 -6z"/>
<path d="M12498 7733 c7 -3 16 -2 19 1 4 3 -2 6 -13 5 -11 0 -14 -3 -6 -6z"/>
<path d="M12448 7723 c6 -2 18 -2 25 0 6 3 1 5 -13 5 -14 0 -19 -2 -12 -5z"/>
<path d="M12368 7713 c7 -3 16 -2 19 1 4 3 -2 6 -13 5 -11 0 -14 -3 -6 -6z"/>
<path d="M1440 7655 c0 -17 4 -23 15 -19 11 5 12 11 4 25 -13 26 -19 24 -19
-6z"/>
<path d="M9040 7661 c0 -6 -10 -11 -22 -12 l-23 0 23 -9 c14 -6 32 -6 48 1 32
11 53 -10 54 -53 0 -24 -4 -27 -42 -31 -24 -2 -7 -4 39 -5 55 -1 83 -6 86 -14
3 -9 11 -6 26 9 21 23 10 46 -12 24 -6 -6 -27 -11 -46 -11 -33 0 -36 3 -38 30
-2 27 0 29 32 28 34 -1 54 7 44 17 -3 2 -26 6 -51 7 -25 2 -44 6 -41 11 2 4
-4 7 -14 7 -10 0 -28 3 -40 6 -14 4 -23 2 -23 -5z"/>
<path d="M12155 7650 c3 -5 12 -7 20 -3 21 7 19 13 -6 13 -11 0 -18 -4 -14
-10z"/>
<path d="M12232 7651 c-8 -5 7 -7 37 -6 28 1 54 5 58 8 9 10 -80 8 -95 -2z"/>
<path d="M9248 7613 c7 -3 16 -2 19 1 4 3 -2 6 -13 5 -11 0 -14 -3 -6 -6z"/>
<path d="M9288 7603 c7 -3 16 -2 19 1 4 3 -2 6 -13 5 -11 0 -14 -3 -6 -6z"/>
<path d="M9070 7590 c0 -5 5 -10 10 -10 6 0 10 5 10 10 0 6 -4 10 -10 10 -5 0
-10 -4 -10 -10z"/>
<path d="M9166 7591 c-4 -7 -5 -15 -2 -18 9 -9 19 4 14 18 -4 11 -6 11 -12 0z"/>
<path d="M9330 7590 c0 -5 10 -10 23 -10 12 0 42 -2 67 -5 l45 -5 -40 15 c-46
17 -95 20 -95 5z"/>
<path d="M11962 7580 c0 -14 2 -19 5 -12 2 6 2 18 0 25 -3 6 -5 1 -5 -13z"/>
<path d="M8818 7573 c7 -3 16 -2 19 1 4 3 -2 6 -13 5 -11 0 -14 -3 -6 -6z"/>
<path d="M8895 7570 c4 -6 11 -8 16 -5 14 9 11 15 -7 15 -8 0 -12 -5 -9 -10z"/>
<path d="M9280 7570 c0 -13 11 -13 30 0 12 8 11 10 -7 10 -13 0 -23 -4 -23
-10z"/>
<path d="M4567 7555 c-11 -5 -24 -21 -27 -35 -10 -36 -1 -300 12 -347 1 -4 -1
-18 -6 -30 -4 -12 -3 -31 3 -41 6 -10 6 -23 2 -28 -11 -12 9 -294 20 -294 5 0
9 -12 8 -27 0 -25 -1 -26 -9 -8 -7 15 -8 7 -7 -26 1 -26 5 -45 9 -43 3 2 6
-22 5 -53 -1 -32 0 -137 2 -233 4 -139 6 -160 11 -105 l6 70 2 -77 c1 -50 -2
-78 -9 -78 -7 0 -8 -11 -3 -32 4 -18 7 -64 7 -103 -1 -38 1 -62 4 -52 6 24 23
11 23 -18 0 -29 12 -33 130 -40 47 -3 119 -8 160 -11 41 -3 131 -7 200 -9 69
-2 190 -6 270 -9 80 -3 267 -7 415 -8 180 -1 272 -5 277 -12 6 -8 8 -8 8 0 0
8 53 10 178 7 120 -2 172 0 162 7 -12 8 -11 10 8 10 12 0 22 -4 22 -10 0 -5 7
-10 15 -10 8 0 15 5 15 10 0 6 18 10 39 10 39 0 70 19 72 43 2 61 -2 725 -7
997 -6 315 -11 371 -32 368 -21 -2 -65 4 -54 9 14 6 16 43 2 43 -6 0 -9 -3 -8
-7 5 -13 -5 -15 -59 -7 -29 3 -53 11 -53 17 0 7 -4 7 -12 -1 -14 -14 -65 -16
-70 -2 -1 5 -51 10 -109 12 -85 1 -106 4 -102 15 4 10 -5 13 -33 13 -53 -2
-166 8 -244 20 -36 6 -120 12 -186 13 -67 1 -118 5 -113 8 17 10 -60 27 -100
23 -22 -3 -42 0 -46 6 -10 15 -35 12 -35 -5 0 -20 -6 -19 -46 5 -20 13 -35 17
-39 10 -3 -6 4 -11 17 -11 17 -1 18 -3 6 -6 -10 -2 -32 3 -50 11 -37 19 -72
21 -62 5 4 -7 1 -10 -7 -7 -8 3 -13 11 -11 17 3 15 -15 14 -20 -1 -3 -9 -25
-9 -94 0 -49 7 -105 13 -124 14 -19 1 -41 6 -47 11 -7 5 -19 7 -26 4 -7 -3
-64 0 -126 7 -79 8 -119 9 -134 1z m1441 -310 c42 -13 57 -24 82 -60 16 -24
30 -52 30 -62 1 -10 7 -29 14 -42 8 -14 11 -41 8 -67 -3 -30 3 -63 18 -107 21
-60 22 -66 7 -88 l-17 -23 -6 32 c-7 34 -21 40 -43 20 -10 -11 -16 -8 -32 11
-25 31 -26 55 0 42 16 -9 17 -7 13 17 -3 15 -10 30 -15 34 -6 3 -10 31 -9 62
1 43 -2 54 -13 50 -7 -3 -19 4 -25 16 -11 21 -12 21 -36 -11 -13 -18 -24 -38
-24 -45 0 -6 -7 -15 -16 -18 -14 -5 -16 2 -11 56 3 35 8 73 12 86 4 12 3 22
-1 22 -23 -1 -39 -23 -60 -86 -20 -59 -24 -64 -24 -35 0 54 -9 32 -30 -74 -11
-53 -28 -109 -39 -123 -10 -15 -21 -36 -23 -47 -2 -11 -10 -19 -16 -17 -7 1
-12 -5 -12 -14 0 -9 -8 -30 -17 -47 -10 -18 -19 -33 -19 -35 -1 -1 -13 2 -28
7 -22 9 -26 16 -26 51 0 44 -5 48 -32 23 -16 -14 -18 -15 -18 0 0 9 5 19 10
22 26 16 6 22 -27 8 -35 -14 -38 -14 -53 3 -10 14 -25 18 -50 16 -31 -3 -38
-9 -57 -50 -12 -26 -24 -56 -27 -66 -4 -13 -10 -16 -16 -10 -9 9 -2 93 11 144
3 9 -3 15 -14 15 -13 0 -23 -13 -32 -39 -20 -57 -28 -58 -52 -11 l-21 43 34
17 c40 19 44 35 9 35 -29 0 -99 -59 -121 -101 -18 -36 -18 -95 1 -148 12 -36
12 -45 0 -76 -8 -19 -15 -57 -15 -85 0 -62 -15 -66 -24 -6 l-7 43 -57 6 c-62
7 -98 1 -122 -18 -33 -27 -51 -26 -80 5 -15 16 -37 30 -48 30 -27 0 -28 50 0
58 34 8 13 27 -35 30 -39 3 -47 6 -47 23 0 11 6 19 13 18 44 -6 63 2 65 26 1
14 -2 25 -7 25 -15 0 -51 37 -51 53 0 23 16 29 30 12 28 -33 112 -5 180 60 59
57 117 77 223 75 51 0 136 2 190 6 80 5 107 3 143 -11 50 -19 68 -13 60 20 -5
21 -2 24 26 27 25 2 33 8 33 23 0 11 4 26 9 34 7 10 4 12 -13 6 -29 -9 -26 9
6 33 32 23 23 44 -15 36 l-27 -5 22 19 c14 12 31 18 47 15 22 -4 27 1 47 46
19 46 26 53 68 65 61 19 136 19 199 1z m-1431 -347 c-3 -8 -6 -5 -6 6 -1 11 2
17 5 13 3 -3 4 -12 1 -19z m1263 -259 c0 -6 -4 -7 -10 -4 -5 3 -10 11 -10 16
0 6 5 7 10 4 6 -3 10 -11 10 -16z m-1253 -66 c-3 -10 -5 -4 -5 12 0 17 2 24 5
18 2 -7 2 -21 0 -30z m1113 6 c0 -11 -4 -18 -10 -14 -5 3 -7 12 -3 20 7 21 13
19 13 -6z m300 17 c0 -3 -4 -8 -10 -11 -5 -3 -10 -1 -10 4 0 6 5 11 10 11 6 0
10 -2 10 -4z m80 -190 c5 -64 13 -100 23 -110 13 -14 16 -14 22 2 7 15 8 15
15 -3 5 -11 9 -15 9 -10 1 6 20 10 44 9 223 -3 217 -2 229 -30 11 -23 9 -28
-17 -48 -17 -13 -25 -27 -21 -35 4 -6 12 -9 17 -6 5 4 9 1 9 -5 0 -6 5 -8 10
-5 6 3 10 0 10 -7 0 -8 -12 -13 -32 -13 -27 0 -33 4 -34 22 -1 12 -9 29 -18
38 -14 15 -18 15 -31 1 -9 -8 -16 -19 -17 -23 -1 -4 -17 -13 -35 -19 -25 -9
-35 -9 -43 1 -14 17 6 33 50 37 19 2 33 8 30 13 -3 6 -16 9 -30 8 -14 -2 -37
-4 -52 -5 -21 -1 -29 -8 -33 -30 -10 -41 -22 -43 -35 -3 -6 19 -16 35 -22 35
-14 0 0 -55 32 -122 l27 -58 -32 0 c-38 0 -53 26 -62 105 -3 27 -13 64 -21 80
-9 18 -16 61 -17 106 -1 42 -6 82 -11 90 -15 25 7 102 24 84 3 -3 9 -48 12
-99z m-251 2 c11 -26 33 -59 47 -75 21 -22 27 -25 34 -13 8 13 10 13 10 -1 0
-18 56 -34 83 -23 12 4 18 -4 26 -33 6 -21 11 -44 11 -50 0 -7 5 -13 11 -13 5
0 7 -5 4 -10 -11 -18 -36 10 -30 31 4 11 2 19 -4 19 -10 0 -15 -20 -12 -47 1
-8 -9 -13 -23 -13 -14 0 -28 -4 -31 -10 -7 -12 -46 -14 -44 -2 4 25 -3 34 -11
15 -10 -25 -30 -31 -30 -10 0 21 47 61 53 45 2 -7 8 -10 12 -6 10 10 -3 28
-21 28 -15 0 -64 -46 -64 -60 0 -4 -7 -11 -16 -14 -23 -9 -8 34 22 59 12 11
24 27 25 35 3 33 -2 50 -16 50 -7 0 -19 8 -24 18 -10 16 -10 16 -11 0 0 -10
-6 -18 -12 -18 -8 0 -14 17 -15 46 -1 25 -11 65 -22 90 -26 55 -26 58 3 31 13
-12 33 -43 45 -69z m-609 45 c-1 -28 -3 -34 -10 -22 -8 14 -3 59 6 59 2 0 4
-17 4 -37z m-623 -35 c-2 -13 -4 -3 -4 22 0 25 2 35 4 23 2 -13 2 -33 0 -45z
m1020 36 c11 -28 -25 -46 -79 -40 -39 5 -46 4 -42 -9 4 -8 1 -15 -5 -15 -6 0
-11 4 -11 9 0 5 -8 11 -17 13 -13 4 -18 -2 -20 -20 -1 -22 2 -24 30 -19 40 6
57 0 51 -17 -6 -16 28 -27 47 -15 8 5 10 9 4 9 -5 1 0 5 13 10 26 11 52 3 52
-15 0 -22 24 -34 79 -36 29 -2 59 -9 67 -17 18 -18 18 -46 -1 -62 -9 -7 -14
-19 -11 -26 8 -22 -18 -22 -31 0 -11 18 -12 19 -13 3 0 -27 -20 -9 -20 18 0
18 -4 23 -15 19 -20 -8 -19 -53 2 -76 15 -17 15 -18 -3 -15 -10 1 -24 6 -30
10 -7 4 -17 0 -24 -9 -7 -8 -20 -12 -28 -9 -12 4 -12 3 -3 -9 7 -8 8 -16 4
-19 -16 -10 -97 -1 -99 11 -1 7 0 8 3 2 2 -5 9 -10 14 -10 5 0 4 9 -3 20 -11
17 -14 18 -27 5 -14 -13 -13 -18 2 -44 23 -39 22 -41 -20 -41 -30 0 -40 5 -49
25 -8 15 -8 25 -2 27 6 2 5 19 -3 46 -15 50 -5 66 22 34 10 -13 24 -22 30 -20
8 3 6 9 -5 20 -12 12 -13 19 -5 24 7 4 18 -1 25 -11 17 -24 52 -29 82 -14 29
16 28 29 -3 29 -14 0 -25 -4 -25 -10 0 -5 -7 -10 -15 -10 -8 0 -15 9 -15 20 0
16 7 20 30 20 38 0 38 10 0 32 -30 17 -30 17 -30 -7 0 -22 -4 -25 -38 -25 -35
0 -38 2 -54 47 -13 35 -14 51 -6 67 8 15 8 21 -1 24 -6 2 -11 8 -11 13 0 4 7
6 15 3 8 -4 15 -1 15 5 0 6 -8 11 -17 11 -15 0 -15 2 2 13 34 22 92 36 104 24
7 -7 17 -5 33 6 30 21 47 21 55 1z m93 -13 c0 -5 2 -16 5 -24 5 -10 -1 -13
-25 -9 -35 5 -49 20 -29 33 18 11 49 11 49 0z m510 -1 c0 -5 -7 -10 -16 -10
-8 0 -12 5 -9 10 3 6 10 10 16 10 5 0 9 -4 9 -10z m-1013 -62 c-3 -8 -6 -5 -6
6 -1 11 2 17 5 13 3 -3 4 -12 1 -19z m128 -138 c10 -11 16 -23 12 -26 -10 -10
-49 17 -43 31 8 21 -6 26 -20 7 -12 -15 -13 -9 -8 42 8 86 27 100 35 25 4 -36
13 -67 24 -79z m-128 61 c0 -33 -4 -58 -8 -56 -3 3 -12 -7 -19 -20 -16 -30
-27 -32 -35 -4 -5 14 0 28 13 42 11 12 26 39 33 60 7 20 14 37 16 37 1 0 1
-27 0 -59z m-147 -41 c0 -13 1 -13 10 0 5 8 10 11 10 6 0 -5 6 -3 14 3 22 18
41 -11 25 -40 -10 -19 -13 -20 -20 -7 -6 10 -17 14 -29 11 -11 -3 -20 0 -20 6
0 6 -3 10 -7 10 -27 -4 -53 3 -53 14 0 9 12 13 35 13 24 -1 35 -6 35 -16z
m-86 -45 c3 -9 0 -15 -9 -15 -9 0 -12 6 -9 15 4 8 7 15 9 15 2 0 5 -7 9 -15z
m129 -35 c-3 -12 -8 -19 -11 -16 -5 6 5 36 12 36 2 0 2 -9 -1 -20z m273 -18
c-10 -10 -29 15 -21 28 6 9 10 8 17 -4 6 -10 7 -20 4 -24z m-86 8 c0 -11 5
-20 10 -20 6 0 10 10 10 22 0 25 12 17 17 -11 1 -11 -4 -22 -13 -25 -18 -7
-58 17 -46 28 4 4 -7 5 -23 1 -29 -6 -29 -6 -11 9 28 23 56 20 56 -4z m516
-42 c3 -5 15 -1 26 9 15 13 22 15 25 6 3 -7 14 -13 26 -14 21 0 21 -1 2 -9
-16 -7 -12 -9 18 -9 34 -1 37 -3 23 -16 -16 -17 -46 -20 -46 -6 0 12 -39 26
-62 22 -20 -3 -58 16 -58 28 0 11 38 2 46 -11z m499 -8 c3 -5 1 -10 -4 -10 -6
0 -11 5 -11 10 0 6 2 10 4 10 3 0 8 -4 11 -10z"/>
<path d="M5808 7083 c-8 -10 -18 -33 -22 -52 -5 -28 -4 -32 8 -21 16 12 41 78
34 86 -3 2 -12 -4 -20 -13z"/>
<path d="M6076 6995 c4 -8 8 -15 10 -15 2 0 4 7 4 15 0 8 -4 15 -10 15 -5 0
-7 -7 -4 -15z"/>
<path d="M5751 6828 c0 -28 2 -30 9 -13 12 28 12 45 0 45 -5 0 -10 -15 -9 -32z"/>
<path d="M5470 6345 c0 -9 5 -15 11 -13 6 2 11 8 11 13 0 5 -5 11 -11 13 -6 2
-11 -4 -11 -13z"/>
<path d="M5488 6283 c7 -3 16 -2 19 1 4 3 -2 6 -13 5 -11 0 -14 -3 -6 -6z"/>
<path d="M5601 6243 c-1 -13 4 -23 10 -23 5 0 7 -4 4 -10 -3 -5 -2 -10 3 -10
6 0 13 7 16 16 8 22 8 24 -8 24 -8 0 -17 6 -19 13 -3 6 -6 2 -6 -10z"/>
<path d="M7680 7560 l-85 -6 83 -2 c65 -2 82 -5 82 -17 0 -17 9 -19 29 -6 16
11 7 42 -11 39 -7 -1 -51 -5 -98 -8z"/>
<path d="M9510 7556 c38 -13 54 -11 30 4 -8 6 -26 10 -40 9 -22 0 -20 -2 10
-13z"/>
<path d="M1395 7550 c3 -5 15 -10 26 -10 10 0 19 5 19 10 0 6 -12 10 -26 10
-14 0 -23 -4 -19 -10z"/>
<path d="M7878 7553 c23 -2 61 -2 85 0 23 2 4 4 -43 4 -47 0 -66 -2 -42 -4z"/>
<path d="M8298 7553 c34 -2 90 -2 125 0 34 2 6 3 -63 3 -69 0 -97 -1 -62 -3z"/>
<path d="M8596 7550 c6 -6 31 -7 69 -1 l60 9 -69 1 c-46 1 -67 -2 -60 -9z"/>
<path d="M8818 7553 c12 -2 32 -2 45 0 12 2 2 4 -23 4 -25 0 -35 -2 -22 -4z"/>
<path d="M11972 7515 c0 -16 2 -22 5 -12 2 9 2 23 0 30 -3 6 -5 -1 -5 -18z"/>
<path d="M8560 7489 c0 -16 4 -28 9 -25 8 5 3 56 -5 56 -2 0 -4 -14 -4 -31z"/>
<path d="M8098 7503 c12 -2 32 -2 45 0 12 2 2 4 -23 4 -25 0 -35 -2 -22 -4z"/>
<path d="M8418 7483 c12 -2 32 -2 45 0 12 2 2 4 -23 4 -25 0 -35 -2 -22 -4z"/>
<path d="M11971 7464 c0 -11 3 -14 6 -6 3 7 2 16 -1 19 -3 4 -6 -2 -5 -13z"/>
<path d="M1378 7343 c12 -2 32 -2 45 0 12 2 2 4 -23 4 -25 0 -35 -2 -22 -4z"/>
<path d="M1395 7320 l-50 -7 53 -1 c29 -1 52 2 52 8 0 6 -1 9 -2 8 -2 0 -25
-4 -53 -8z"/>
<path d="M1400 7130 c0 -5 5 -10 11 -10 5 0 7 5 4 10 -3 6 -8 10 -11 10 -2 0
-4 -4 -4 -10z"/>
<path d="M13220 7104 c-19 -2 -87 -9 -150 -14 -63 -6 -133 -13 -155 -16 -22
-2 -103 -11 -180 -19 -77 -8 -234 -25 -350 -39 -115 -14 -271 -32 -345 -41
-74 -9 -147 -23 -161 -30 -14 -8 -34 -12 -45 -9 -14 4 -20 0 -22 -13 -6 -54
-13 -289 -23 -708 -17 -763 -19 -965 -10 -905 5 30 11 165 14 300 13 532 41
1278 50 1286 1 1 166 21 367 44 201 22 442 50 535 61 202 23 516 57 565 61 27
2 35 7 35 23 0 17 -7 20 -45 21 -25 1 -61 0 -80 -2z"/>
<path d="M1405 7050 c3 -5 8 -10 11 -10 2 0 4 5 4 10 0 6 -5 10 -11 10 -5 0
-7 -4 -4 -10z"/>
<path d="M13342 7010 c0 -19 2 -27 5 -17 2 9 2 25 0 35 -3 9 -5 1 -5 -18z"/>
<path d="M13040 6975 c-113 -13 -252 -28 -310 -34 -334 -35 -591 -61 -705 -72
-71 -6 -134 -16 -140 -20 -22 -21 17 -25 120 -13 61 7 153 18 205 23 496 54
931 102 958 106 l32 6 0 -98 c0 -54 -4 -206 -10 -338 -11 -275 -28 -695 -35
-900 -16 -415 -53 -1213 -60 -1270 -3 -22 -7 -130 -11 -240 -3 -110 -8 -202
-10 -204 -2 -2 -4 18 -4 45 0 35 -3 45 -10 34 -7 -11 -10 -6 -11 20 -1 28 -2
31 -7 12 -7 -22 -7 -21 -21 8 -17 40 -27 31 -12 -11 14 -40 14 -69 1 -69 -5 0
-10 9 -10 21 0 11 -4 17 -10 14 -5 -3 -10 -28 -10 -55 0 -75 -20 -202 -36
-232 -8 -14 -13 -36 -12 -49 3 -21 0 -22 -52 -20 -30 1 -66 3 -80 5 -14 1 -19
1 -12 -1 24 -9 11 -23 -20 -23 -18 0 -43 -3 -56 -6 -18 -5 -24 -1 -33 25 -10
28 -39 44 -39 21 0 -5 -17 -10 -38 -10 -48 0 -83 33 -85 81 -1 23 -7 35 -19
37 -15 3 -18 -4 -18 -42 0 -34 -4 -46 -15 -46 -17 0 -20 16 -6 25 6 3 0 26
-12 53 -21 46 -24 49 -87 65 -36 10 -72 18 -80 19 -8 0 -21 5 -27 11 -7 5 -13
7 -13 3 0 -3 -12 -1 -27 5 -40 16 -283 14 -293 -1 -12 -19 -23 294 -17 463 3
82 8 152 11 155 4 3 55 0 114 -7 162 -19 268 -29 362 -36 47 -3 99 -8 115 -10
60 -10 281 -35 307 -35 23 0 27 5 30 33 3 29 6 32 43 37 34 5 27 7 -40 13 -44
4 -134 9 -200 13 -66 3 -132 10 -147 14 -25 8 -29 6 -37 -23 l-9 -32 -1 33
c-1 17 -4 31 -8 30 -5 0 -15 1 -23 5 -8 3 -53 8 -100 11 -139 10 -364 34 -382
41 -10 4 -18 13 -18 21 0 27 -29 14 -35 -17 -4 -17 -13 -42 -21 -57 l-14 -27
-1 25 c0 14 -3 90 -5 170 -3 80 0 309 6 510 6 201 13 502 16 670 3 168 10 321
15 340 11 45 12 127 0 134 -15 10 -18 -14 -20 -189 0 -93 -4 -219 -6 -280 -3
-60 -12 -362 -20 -670 -9 -308 -17 -609 -20 -670 -2 -60 -7 -175 -10 -255 -9
-229 -14 -270 -32 -263 -14 5 -15 60 -9 487 4 265 8 542 10 616 2 74 1 122 -3
105 -4 -16 -8 -99 -10 -184 -1 -85 -4 -158 -6 -161 -3 -4 -9 -160 -15 -346
-11 -375 -25 -568 -46 -660 -22 -98 -61 -1085 -45 -1154 12 -53 14 -113 4
-107 -10 6 -4 -85 6 -96 9 -9 184 -58 189 -52 2 2 6 46 9 97 2 51 8 97 12 101
4 4 20 3 35 -3 15 -5 43 -10 62 -10 19 0 34 -4 34 -10 0 -5 6 -10 14 -10 7 0
19 -7 27 -16 7 -8 21 -13 32 -10 11 3 29 -1 41 -9 11 -8 48 -15 81 -16 57 -2
114 -27 98 -43 -3 -3 1 -6 10 -6 9 0 17 -4 17 -10 0 -5 18 -10 40 -10 23 0 40
5 40 11 0 7 8 9 23 4 12 -4 34 -8 48 -10 14 -1 36 -8 48 -15 13 -6 46 -19 74
-27 44 -13 49 -17 32 -24 -16 -8 -15 -8 7 -4 17 3 40 -2 61 -15 33 -19 35 -24
30 -60 -5 -35 -3 -40 15 -40 12 0 23 9 27 20 4 11 15 20 26 20 17 0 20 -6 17
-42 l-3 -43 -82 3 c-78 3 -83 2 -83 -17 0 -25 -35 -29 -44 -5 -9 22 -8 24 11
24 23 0 11 9 -26 20 -29 8 -31 7 -25 -16 6 -22 3 -24 -25 -24 -17 0 -31 5 -31
10 0 6 5 10 10 10 16 0 11 37 -6 44 -22 9 -24 8 -24 -9 0 -11 -11 -15 -42 -14
l-43 1 33 10 c17 6 32 14 32 18 0 10 -47 30 -71 30 -11 0 -31 7 -44 16 -14 9
-25 14 -25 11 0 -4 -19 0 -41 8 -23 8 -59 15 -80 15 -28 0 -39 4 -39 15 0 12
-13 15 -60 15 -47 0 -60 -3 -60 -15 0 -9 -11 -20 -24 -25 -31 -11 -60 -71 -52
-104 18 -71 4 -391 -29 -691 -23 -218 -19 -206 -91 -287 -71 -81 -188 -159
-369 -248 -55 -27 -125 -63 -155 -80 -71 -41 -112 -62 -180 -94 -62 -29 -218
-112 -234 -125 -21 -16 -112 -64 -231 -122 -66 -33 -131 -65 -145 -73 -326
-186 -516 -284 -527 -272 -3 3 7 11 23 17 18 7 24 13 16 16 -8 3 -19 0 -25 -6
-6 -6 -18 -11 -27 -11 -8 0 -44 -25 -79 -55 -66 -59 -114 -86 -245 -141 -43
-18 -95 -44 -115 -57 -20 -13 -53 -29 -73 -36 -21 -7 -40 -17 -43 -22 -4 -5
1063 -9 2759 -9 2719 0 2766 0 2766 19 0 11 6 21 13 24 10 4 10 7 0 18 -16 17
-17 76 -1 81 26 9 -6 28 -46 28 l-44 0 -6 -45 c-8 -50 -20 -63 -41 -45 -21 18
-18 40 5 40 24 0 25 9 5 56 -19 46 -11 62 33 66 34 3 37 6 40 36 2 19 11 38
23 45 10 6 19 17 19 24 0 7 9 13 20 13 19 0 21 -6 19 -49 -2 -32 3 -58 14 -75
9 -14 14 -32 11 -40 -3 -9 -1 -16 5 -16 6 0 11 11 11 25 0 22 4 25 39 25 38 0
40 -2 39 -30 -1 -36 5 -45 27 -37 9 4 15 19 15 37 0 19 7 34 20 42 13 9 20 24
20 45 0 26 4 33 19 33 26 0 39 -40 17 -52 -22 -12 -11 -28 20 -28 22 0 24 4
24 50 l0 50 40 0 c22 0 40 5 40 10 0 15 41 12 54 -3 7 -9 26 -12 59 -9 58 5
61 20 5 25 l-43 4 43 1 c35 2 42 5 42 23 0 24 18 21 34 -4 8 -13 8 -20 -3 -26
-19 -12 3 -51 29 -51 15 0 20 7 20 25 0 23 4 25 40 25 22 0 40 -4 40 -10 0 -5
18 -10 39 -10 28 0 40 -5 43 -16 3 -15 5 -14 25 2 19 17 20 25 14 72 -5 37 -4
55 5 63 17 14 29 -8 25 -44 -1 -15 1 -41 4 -58 5 -24 10 -28 19 -19 8 10 8 14
-1 17 -14 5 -18 63 -5 63 5 0 17 -9 27 -20 10 -11 24 -20 32 -20 8 0 13 -13
13 -36 0 -40 21 -63 58 -64 28 0 29 21 1 38 -16 10 -19 19 -14 40 4 15 13 31
21 35 19 11 21 383 2 390 -10 4 -10 6 0 6 6 1 12 7 12 15 0 8 -6 17 -12 19
-10 4 -10 6 0 6 14 1 17 61 2 61 -5 0 -10 9 -10 20 0 11 5 20 10 20 14 0 12
92 -3 110 -24 29 -56 40 -97 34 -22 -4 -43 -11 -46 -15 -8 -14 -41 -10 -47 5
-4 9 -14 12 -26 9 -17 -4 -22 0 -27 27 -4 19 -16 36 -28 41 -29 13 -310 90
-566 156 -421 108 -627 161 -740 192 -63 17 -153 40 -200 50 -47 11 -125 31
-175 46 -49 15 -133 37 -185 50 -52 12 -201 48 -330 80 -129 31 -257 62 -285
67 -27 5 -62 17 -78 26 l-27 17 5 130 c3 71 13 247 21 390 18 330 32 616 39
820 3 88 10 210 15 270 6 61 14 259 20 440 6 182 15 429 20 550 15 338 21 604
11 480 -9 -99 -13 -183 -31 -590 -13 -295 -21 -394 -31 -367 -10 27 -16 28
-16 5 1 -42 -3 -76 -8 -71 -5 5 16 566 35 928 69 1341 98 2123 80 2145 -9 11
-9 15 -1 15 6 0 11 7 11 15 0 19 -2 19 -260 -10z m169 -369 c-9 -8 -10 -1 -5
29 3 22 7 87 8 145 2 102 2 101 5 -29 3 -93 0 -138 -8 -145z m-2 -208 c-2 -35
-3 -9 -3 57 0 66 1 94 3 63 2 -32 2 -86 0 -120z m-12 -366 c-4 -101 -9 -181
-12 -178 -3 2 -1 112 3 243 5 131 11 211 12 178 2 -33 1 -142 -3 -243z m-21
-467 c-6 -126 -12 -196 -12 -155 -3 120 11 425 18 404 3 -10 1 -122 -6 -249z
m-18 -442 c-3 -97 -9 -179 -13 -182 -3 -3 -3 50 1 118 3 68 6 150 6 183 0 32
3 58 6 58 4 0 4 -80 0 -177z m-9 -235 c-3 -7 -5 -2 -5 12 0 14 2 19 5 13 2 -7
2 -19 0 -25z m-10 -230 c-2 -13 -4 -3 -4 22 0 25 2 35 4 23 2 -13 2 -33 0 -45z
m-1280 -280 c-3 -8 -6 -5 -6 6 -1 11 2 17 5 13 3 -3 4 -12 1 -19z m30 -30 c-3
-8 -6 -5 -6 6 -1 11 2 17 5 13 3 -3 4 -12 1 -19z m473 -1823 c0 -3 -9 -5 -20
-5 -11 0 -20 7 -20 15 0 13 4 14 20 5 11 -6 20 -13 20 -15z m480 -310 c0 -8
-7 -15 -15 -15 -9 0 -12 6 -9 15 4 8 10 15 15 15 5 0 9 -7 9 -15z m-200 -25
c0 -13 -11 -13 -30 0 -12 8 -11 10 8 10 12 0 22 -4 22 -10z m80 -46 c0 -11 -6
-14 -22 -9 -39 12 -44 25 -10 25 22 0 32 -5 32 -16z m3126 -1173 c-14 -13 -16
-13 -21 1 -4 9 -1 27 6 39 l12 23 9 -24 c6 -17 5 -28 -6 -39z m-261 -61 c18
-20 17 -20 -8 -20 -20 0 -27 5 -27 20 0 11 4 20 8 20 5 0 17 -9 27 -20z m65
-20 c0 -5 -7 -10 -15 -10 -8 0 -15 5 -15 10 0 6 7 10 15 10 8 0 15 -4 15 -10z
m-690 -377 c0 -25 -1 -26 -16 -11 -9 9 -13 21 -10 27 13 20 26 11 26 -16z
m160 -19 c0 -22 -2 -25 -15 -14 -8 7 -15 19 -15 26 0 8 7 14 15 14 10 0 15
-10 15 -26z m508 1 c13 -28 52 -35 52 -10 0 15 15 9 59 -22 2 -1 -2 -16 -8
-32 -9 -20 -22 -31 -43 -35 -48 -9 -88 -7 -88 5 0 7 -8 18 -17 25 -15 11 -10
12 37 10 30 -2 38 -1 18 1 -37 4 -38 5 -38 44 0 45 12 51 28 14z m-1044 -68
c-10 -28 -24 -19 -24 15 0 29 2 31 15 17 9 -9 13 -23 9 -32z m1366 -2 c0 -24
-28 -25 -32 -1 -4 19 -1 22 14 18 10 -2 18 -10 18 -17z m-1445 -15 c7 0 16 7
19 17 12 31 35 -17 34 -72 -1 -50 -2 -50 -5 -7 -4 43 -25 58 -37 25 -6 -14 -8
-14 -21 3 -8 10 -14 30 -14 44 1 17 3 19 6 8 2 -10 10 -18 18 -18z m735 -10
c0 -22 -4 -40 -10 -40 -5 0 -10 18 -10 40 0 22 5 40 10 40 6 0 10 -18 10 -40z
m37 -22 c-2 -13 -4 -3 -4 22 0 25 2 35 4 23 2 -13 2 -33 0 -45z m194 52 c27
-15 24 -30 -6 -30 -18 0 -25 5 -25 20 0 23 4 24 31 10z m-421 -30 c0 -5 -4
-10 -10 -10 -5 0 -10 5 -10 10 0 6 5 10 10 10 6 0 10 -4 10 -10z m94 -26 c8
-21 9 -18 -14 -44 -16 -19 -22 -21 -35 -10 -21 18 -19 40 5 40 11 0 20 7 20
15 0 20 16 19 24 -1z m-459 -4 c4 -6 -5 -10 -19 -10 -14 0 -26 5 -26 10 0 6 9
10 19 10 11 0 23 -4 26 -10z m-335 -20 c0 -5 -2 -10 -4 -10 -3 0 -8 5 -11 10
-3 6 -1 10 4 10 6 0 11 -4 11 -10z m555 0 c-3 -5 -10 -10 -16 -10 -5 0 -9 5
-9 10 0 6 7 10 16 10 8 0 12 -4 9 -10z m160 -60 c3 -5 -1 -10 -9 -10 -9 0 -16
5 -16 10 0 6 4 10 9 10 6 0 13 -4 16 -10z m-480 -20 c-3 -5 -10 -10 -16 -10
-5 0 -9 5 -9 10 0 6 7 10 16 10 8 0 12 -4 9 -10z m560 0 c-3 -5 -10 -10 -16
-10 -5 0 -9 5 -9 10 0 6 7 10 16 10 8 0 12 -4 9 -10z m-472 -14 c7 -16 -1 -26
-20 -26 -7 0 -13 9 -13 20 0 23 25 27 33 6z m-116 -48 c-3 -8 -6 -5 -6 6 -1
11 2 17 5 13 3 -3 4 -12 1 -19z m163 2 c0 -5 -9 -10 -20 -10 -11 0 -20 5 -20
10 0 6 9 10 20 10 11 0 20 -4 20 -10z m-84 -87 c-10 -10 -19 5 -10 18 6 11 8
11 12 0 2 -7 1 -15 -2 -18z m81 -65 c-2 -13 -4 -3 -4 22 0 25 2 35 4 23 2 -13
2 -33 0 -45z m160 -10 c-3 -8 -6 -5 -6 6 -1 11 2 17 5 13 3 -3 4 -12 1 -19z
m-847 -23 c-7 -8 -16 -15 -21 -15 -5 0 -9 7 -9 15 0 9 9 15 21 15 18 0 19 -2
9 -15z"/>
<path d="M13336 6889 c-3 -19 -8 -106 -11 -194 -3 -88 -10 -266 -15 -395 -9
-224 -11 -428 -4 -385 2 11 8 160 15 330 6 171 14 391 18 490 4 99 6 182 5
184 -2 1 -5 -12 -8 -30z"/>
<path d="M1360 6846 c0 -9 7 -12 20 -9 11 3 17 9 14 14 -8 14 -34 10 -34 -5z"/>
<path d="M1410 6750 c0 -5 7 -10 15 -10 8 0 15 5 15 10 0 6 -7 10 -15 10 -8 0
-15 -4 -15 -10z"/>
<path d="M1340 6701 c-9 -19 -8 -21 15 -21 28 0 32 12 11 29 -12 10 -17 8 -26
-8z"/>
<path d="M15715 6530 c-110 -14 -408 -43 -845 -81 -63 -6 -121 -12 -127 -14
-9 -3 -13 -35 -13 -111 l0 -106 68 6 c130 12 542 45 752 62 142 10 244 24 252
32 4 4 9 55 11 113 2 119 9 112 -98 99z m-76 -74 c17 -20 -3 -66 -29 -66 -17
0 -20 6 -18 33 1 17 3 35 5 40 7 12 30 8 42 -7z m-749 -103 c-11 -17 -11 -17
-6 0 3 10 6 24 7 30 0 9 2 9 5 0 3 -7 0 -20 -6 -30z m755 17 c11 -18 -17 -41
-44 -38 -37 4 -40 35 -4 41 15 2 31 5 35 6 4 0 10 -4 13 -9z m-757 -87 c-14
-13 -20 -14 -32 -3 -22 18 -20 28 7 32 32 6 44 -9 25 -29z"/>
<path d="M1280 6203 c0 -25 1 -26 16 -11 9 9 13 21 10 27 -13 20 -26 11 -26
-16z"/>
<path d="M9531 6134 c0 -11 3 -14 6 -6 3 7 2 16 -1 19 -3 4 -6 -2 -5 -13z"/>
<path d="M1370 6130 c-11 -7 -7 -10 18 -10 20 0 31 4 27 10 -8 13 -26 13 -45
0z"/>
<path d="M9522 5935 c0 -16 2 -22 5 -12 2 9 2 23 0 30 -3 6 -5 -1 -5 -18z"/>
<path d="M13294 5750 c0 -63 1 -89 3 -57 2 31 2 83 0 115 -2 31 -3 5 -3 -58z"/>
<path d="M9523 5755 c0 -22 2 -30 4 -17 2 12 2 30 0 40 -3 9 -5 -1 -4 -23z"/>
<path d="M9523 5625 c0 -38 2 -53 4 -32 2 20 2 52 0 70 -2 17 -4 1 -4 -38z"/>
<path d="M13284 5465 c0 -77 2 -107 3 -67 2 40 2 103 0 140 -2 37 -3 4 -3 -73z"/>
<path d="M1360 5486 c0 -34 4 -46 13 -43 7 2 11 17 9 38 -6 55 -22 59 -22 5z"/>
<path d="M1442 5514 c-23 -16 -29 -34 -12 -34 6 0 10 7 10 15 0 8 7 15 15 15
8 0 15 5 15 10 0 13 -2 13 -28 -6z"/>
<path d="M1360 5380 c0 -17 7 -20 40 -20 33 0 40 3 40 20 0 17 -7 20 -40 20
-33 0 -40 -3 -40 -20z"/>
<path d="M9200 5379 c0 -24 23 -21 28 4 2 10 -3 17 -12 17 -10 0 -16 -9 -16
-21z"/>
<path d="M9340 5360 c0 -5 5 -10 10 -10 6 0 10 5 10 10 0 6 -4 10 -10 10 -5 0
-10 -4 -10 -10z"/>
<path d="M8960 5340 c0 -6 -34 -10 -82 -10 -45 0 -79 -2 -77 -4 2 -2 57 -6
122 -10 113 -6 117 -5 117 14 0 17 -7 20 -40 20 -22 0 -40 -4 -40 -10z"/>
<path d="M9360 5330 c0 -5 7 -10 16 -10 8 0 12 5 9 10 -3 6 -10 10 -16 10 -5
0 -9 -4 -9 -10z"/>
<path d="M9138 5323 c12 -2 32 -2 45 0 12 2 2 4 -23 4 -25 0 -35 -2 -22 -4z"/>
<path d="M1361 5316 c8 -8 88 -10 95 -3 4 4 -17 7 -46 7 -29 0 -51 -2 -49 -4z"/>
<path d="M9240 5310 c0 -5 9 -10 19 -10 11 0 21 -5 23 -12 5 -15 28 -1 28 18
0 9 -11 14 -35 14 -19 0 -35 -4 -35 -10z"/>
<path d="M13274 5225 c0 -55 1 -76 3 -47 2 29 2 74 0 100 -2 26 -3 2 -3 -53z"/>
<path d="M1440 5250 c0 -5 5 -10 11 -10 5 0 7 5 4 10 -3 6 -8 10 -11 10 -2 0
-4 -4 -4 -10z"/>
<path d="M8498 5243 c12 -2 32 -2 45 0 12 2 2 4 -23 4 -25 0 -35 -2 -22 -4z"/>
<path d="M8678 5243 c23 -2 61 -2 85 0 23 2 4 4 -43 4 -47 0 -66 -2 -42 -4z"/>
<path d="M7602 5220 c0 -14 2 -19 5 -12 2 6 2 18 0 25 -3 6 -5 1 -5 -13z"/>
<path d="M8160 5225 c0 -11 -11 -15 -40 -15 -29 0 -40 -4 -40 -15 0 -21 64
-20 90 2 24 21 26 43 5 43 -8 0 -15 -7 -15 -15z"/>
<path d="M7635 5170 c-4 -6 5 -10 19 -10 14 0 26 5 26 10 0 6 -9 10 -19 10
-11 0 -23 -4 -26 -10z"/>
<path d="M7938 5163 c12 -2 32 -2 45 0 12 2 2 4 -23 4 -25 0 -35 -2 -22 -4z"/>
<path d="M7440 5130 c0 -5 5 -10 11 -10 5 0 7 5 4 10 -3 6 -8 10 -11 10 -2 0
-4 -4 -4 -10z"/>
<path d="M7505 5130 c-3 -5 -1 -10 4 -10 6 0 11 5 11 10 0 6 -2 10 -4 10 -3 0
-8 -4 -11 -10z"/>
<path d="M7600 5100 c0 -17 7 -20 40 -20 33 0 40 3 40 20 0 17 -7 20 -40 20
-33 0 -40 -3 -40 -20z"/>
<path d="M7260 5080 c0 -5 5 -10 10 -10 6 0 10 5 10 10 0 6 -4 10 -10 10 -5 0
-10 -4 -10 -10z"/>
<path d="M13263 5050 c0 -25 2 -35 4 -22 2 12 2 32 0 45 -2 12 -4 2 -4 -23z"/>
<path d="M6800 4734 c0 -8 5 -12 10 -9 6 4 8 11 5 16 -9 14 -15 11 -15 -7z"/>
<path d="M1368 4683 c7 -3 16 -2 19 1 4 3 -2 6 -13 5 -11 0 -14 -3 -6 -6z"/>
<path d="M5442 4660 c0 -14 2 -19 5 -12 2 6 2 18 0 25 -3 6 -5 1 -5 -13z"/>
<path d="M11880 4638 c0 -9 5 -20 10 -23 13 -8 13 5 0 25 -8 13 -10 13 -10 -2z"/>
<path d="M1431 4603 c-18 -20 -6 -29 14 -10 8 9 12 18 8 20 -5 3 -14 -2 -22
-10z"/>
<path d="M1360 4530 c0 -5 5 -10 10 -10 6 0 10 5 10 10 0 6 -4 10 -10 10 -5 0
-10 -4 -10 -10z"/>
<path d="M12935 4420 c-1 -38 0 -40 31 -40 29 0 32 3 36 35 3 26 0 35 -12 36
-8 0 -24 2 -35 4 -17 4 -20 -1 -20 -35z"/>
<path d="M12868 4383 c6 -2 18 -2 25 0 6 3 1 5 -13 5 -14 0 -19 -2 -12 -5z"/>
<path d="M1387 4224 c-4 -4 -7 -22 -7 -41 0 -26 4 -33 20 -33 11 0 20 -7 20
-15 0 -8 5 -15 10 -15 6 0 10 7 10 15 0 8 -4 15 -10 15 -5 0 -10 10 -10 23 0
27 -22 61 -33 51z"/>
<path d="M13062 4100 c0 -14 2 -19 5 -12 2 6 2 18 0 25 -3 6 -5 1 -5 -13z"/>
<path d="M1440 3949 c0 -5 5 -7 10 -4 6 3 10 8 10 11 0 2 -4 4 -10 4 -5 0 -10
-5 -10 -11z"/>
<path d="M12882 3673 c2 -10 10 -18 18 -18 8 0 16 8 18 18 2 12 -3 17 -18 17
-15 0 -20 -5 -18 -17z"/>
<path d="M1470 3556 c0 -2 11 -6 25 -8 14 -3 25 -1 25 3 0 5 -11 9 -25 9 -14
0 -25 -2 -25 -4z"/>
<path d="M8015 3280 c-3 -5 -1 -10 4 -10 6 0 11 5 11 10 0 6 -2 10 -4 10 -3 0
-8 -4 -11 -10z"/>
<path d="M6355 3211 c11 -10 31 -22 45 -26 20 -5 18 -2 -12 19 -43 30 -61 34
-33 7z"/>
<path d="M7676 3219 c-58 -8 -142 -35 -159 -49 -5 -4 27 1 70 11 43 10 107 25
143 33 72 15 38 18 -54 5z"/>
<path d="M6447 3130 c-3 -14 -9 -42 -12 -64 -11 -69 -79 -135 -141 -137 -16 0
-23 -3 -15 -6 12 -5 59 3 161 27 68 16 208 40 236 41 l29 1 -29 10 c-21 8 -47
8 -91 -1 -87 -15 -94 -14 -60 14 16 13 27 25 25 27 -3 2 -18 10 -34 18 -29 15
-35 23 -54 70 l-10 25 -5 -25z"/>
<path d="M3592 2960 c0 -14 2 -19 5 -12 2 6 2 18 0 25 -3 6 -5 1 -5 -13z"/>
<path d="M1607 2963 c-12 -11 -8 -23 8 -23 8 0 15 7 15 15 0 16 -12 20 -23 8z"/>
<path d="M9616 2921 c-5 -8 49 -21 84 -21 13 1 13 2 0 9 -24 13 -79 21 -84 12z"/>
<path d="M6085 2910 c-22 -4 -53 -12 -69 -19 -16 -6 -77 -16 -135 -22 -58 -6
-122 -14 -141 -19 -19 -5 -89 -18 -155 -30 -153 -26 -177 -31 -173 -36 8 -7
429 53 578 83 41 8 99 19 129 25 36 7 49 13 40 19 -15 10 -17 10 -74 -1z"/>
<path d="M6213 2913 c9 -2 23 -2 30 0 6 3 -1 5 -18 5 -16 0 -22 -2 -12 -5z"/>
<path d="M9740 2886 c0 -2 7 -7 16 -10 8 -3 12 -2 9 4 -6 10 -25 14 -25 6z"/>
<path d="M5078 2743 c7 -3 16 -2 19 1 4 3 -2 6 -13 5 -11 0 -14 -3 -6 -6z"/>
<path d="M10460 2740 c-8 -5 -3 -10 12 -13 32 -8 138 -18 113 -10 -73 21 -116
29 -125 23z"/>
<path d="M10638 2703 c6 -2 18 -2 25 0 6 3 1 5 -13 5 -14 0 -19 -2 -12 -5z"/>
<path d="M1600 2665 c0 -8 2 -15 4 -15 2 0 6 7 10 15 3 8 1 15 -4 15 -6 0 -10
-7 -10 -15z"/>
<path d="M3452 2529 c-12 -18 -11 -24 2 -37 15 -15 16 -13 16 21 0 20 -1 37
-3 37 -1 0 -8 -10 -15 -21z"/>
<path d="M1576 2462 c-7 -12 5 -52 15 -52 5 0 9 14 9 30 0 28 -13 40 -24 22z"/>
<path d="M11880 2435 c33 -19 50 -18 26 0 -11 8 -27 15 -35 15 -10 -1 -7 -6 9
-15z"/>
<path d="M11934 2396 c7 -54 10 -61 24 -52 6 4 6 20 -2 45 -17 59 -30 63 -22
7z"/>
<path d="M3421 2421 c-10 -6 -10 -10 -1 -16 13 -8 24 -1 19 14 -3 6 -10 7 -18
2z"/>
<path d="M1600 2350 c0 -5 4 -10 9 -10 6 0 13 5 16 10 3 6 -1 10 -9 10 -9 0
-16 -4 -16 -10z"/>
<path d="M1600 2263 c1 -36 1 -37 16 -18 17 22 15 46 -3 53 -9 2 -13 -8 -13
-35z"/>
<path d="M1600 2174 c0 -8 5 -12 10 -9 6 4 8 11 5 16 -9 14 -15 11 -15 -7z"/>
<path d="M1665 2181 c-3 -5 -1 -12 5 -16 5 -3 10 1 10 9 0 18 -6 21 -15 7z"/>
<path d="M1681 2034 c0 -11 3 -14 6 -6 3 7 2 16 -1 19 -3 4 -6 -2 -5 -13z"/>
<path d="M7768 1973 c-53 -13 26 -33 130 -33 23 0 42 -3 42 -7 0 -5 4 -14 9
-22 8 -12 13 -11 34 5 44 35 15 46 -153 58 -25 1 -53 1 -62 -1z"/>
<path d="M8070 1800 c0 -5 5 -10 11 -10 5 0 7 5 4 10 -3 6 -8 10 -11 10 -2 0
-4 -4 -4 -10z"/>
<path d="M8950 1454 c0 -16 8 -19 58 -20 31 0 81 -4 111 -8 38 -6 52 -5 47 3
-4 6 -16 11 -26 11 -10 0 -20 6 -22 12 -3 8 -33 14 -86 16 -75 4 -82 2 -82
-14z"/>
<path d="M8458 1253 c7 -3 16 -2 19 1 4 3 -2 6 -13 5 -11 0 -14 -3 -6 -6z"/>
<path d="M8348 1178 c-22 -21 -48 -69 -48 -86 0 -4 7 1 15 12 9 11 18 15 27
10 15 -10 56 -14 81 -7 23 6 22 44 -3 71 -26 28 -43 28 -72 0z"/>
<path d="M15836 1081 c-3 -4 6 -6 19 -3 14 2 25 6 25 8 0 8 -39 4 -44 -5z"/>
<path d="M15360 281 c0 -12 5 -21 10 -21 6 0 10 6 10 14 0 8 -4 18 -10 21 -5
3 -10 -3 -10 -14z"/>
<path d="M15820 271 c0 -6 5 -13 10 -16 6 -3 10 1 10 9 0 9 -4 16 -10 16 -5 0
-10 -4 -10 -9z"/>
<path d="M15386 252 c-7 -12 4 -52 15 -52 12 0 12 47 0 55 -5 3 -12 2 -15 -3z"/>
<path d="M15040 140 c0 -11 -7 -20 -15 -20 -18 0 -19 -14 -5 -40 10 -18 12
-19 30 -3 24 21 28 83 5 83 -8 0 -15 -9 -15 -20z"/>
<path d="M15200 120 c0 -19 5 -30 14 -30 17 0 28 24 20 45 -11 27 -34 17 -34
-15z"/>
<path d="M15500 130 c-13 -8 -12 -10 3 -10 9 0 17 5 17 10 0 12 -1 12 -20 0z"/>
<path d="M15360 50 c0 -5 9 -10 21 -10 11 0 17 4 14 10 -3 6 -13 10 -21 10 -8
0 -14 -4 -14 -10z"/>
<path d="M15100 31 c0 -6 5 -13 10 -16 6 -3 10 1 10 9 0 9 -4 16 -10 16 -5 0
-10 -4 -10 -9z"/>
</g>
</svg>
